<?xml version="1.0" encoding="utf-8"?>
<!-- Generator: Adobe Illustrator 27.5.0, SVG Export Plug-In . SVG Version: 6.00 Build 0)  -->
<svg version="1.1" id="Layer_1" xmlns="http://www.w3.org/2000/svg" xmlns:xlink="http://www.w3.org/1999/xlink" x="0px" y="0px"
	 viewBox="0 0 4000 4000" style="enable-background:new 0 0 4000 4000;" xml:space="preserve">
<g>
	<g>
		<rect style="fill-rule:evenodd;clip-rule:evenodd;fill:#FBE291;" width="4000" height="4000"/>
	</g>
	<g>
		<g>
			<g>
				<path style="fill-rule:evenodd;clip-rule:evenodd;fill:#E2962D;" d="M874.974,1844.538
					c652.981-587.525,1636.378-612.634,2318.489-59.199c621.422,1100.298-2060.98,1674.674-2464.7,682.878
					C642.954,2257.401,722.633,2013.66,874.974,1844.538z"/>
			</g>
			<g>
				<path style="fill:#650001;" d="M1786.109,2998.51c-65.942,0-130.869-2.944-193.999-8.926
					c-211.138-20.015-393.472-71.182-541.934-152.07c-164.019-89.37-278.296-211.118-339.663-361.87
					c-42.1-103.433-47.983-220.957-17.017-339.868c28.564-109.702,86.26-214.968,166.841-304.426c0.459-0.51,0.947-0.998,1.46-1.46
					c319.297-287.29,731.611-451.545,1160.996-462.507c429.502-10.964,849.546,132.036,1183.081,402.659
					c1.919,1.555,3.53,3.46,4.746,5.61c127.021,224.91,126.714,447.732-0.884,644.377
					c-123.066,189.653-363.574,352.212-677.217,457.734C2298.37,2956.537,2035.079,2998.51,1786.109,2998.51z M888.926,1858.49
					c-161.846,180.161-217.549,416.47-141.909,602.3c111.694,274.399,413.14,448.262,848.813,489.561
					c296.143,28.066,633.003-11.997,924.121-109.941c305.254-102.695,538.481-259.609,656.729-441.836
					c120.186-185.215,120.664-387.168,1.455-600.291C2499.742,1250.128,1537.818,1275.265,888.926,1858.49z"/>
			</g>
			<g>
				<path style="fill-rule:evenodd;clip-rule:evenodd;fill:#FF8906;" d="M1484.861,1442.125
					c428.21-149.096,893.225-154.961,1321.665-6.505c207.094,47.95,366.365,213.613,406.125,422.436
					c39.748,208.802-43.792,427.02-222.502,542.095c-15.211,9.783-33.231,0.092-46.462-9.987
					c-2.921,49.507-30.927,88.225-84.033,116.107c-553.654,349.08-1251.182,404.131-1840.519,119.429
					c-20.893-10.081-18.648-42.474-14.376-65.293c-74.067,8.75-174.71-37.435-214.036-148.412
					c-128.708-363.146,114.733-743.085,482.826-857.015c24.846-7.699,48.663-7.401,70.816-1.147
					C1361.627,1501.99,1409.635,1468.335,1484.861,1442.125z"/>
			</g>
			<g>
				<path style="fill:#650001;" d="M1823.243,2827.806c-282.729,0-561.27-62.91-812.676-184.36
					c-14.565-7.031-29.922-23.589-28.14-62.305c-79.985-1.646-172.041-54.663-210.278-162.563
					c-57.451-162.104-45.22-338.823,34.443-497.603c91.377-182.134,259.453-322.395,461.133-384.817
					c21.523-6.67,43.174-8.369,64.595-5.076c22.026-46.257,68.999-80.718,146.06-107.566c0.005,0,0.005,0,0.005,0
					c216.436-75.359,440.874-114.363,667.09-115.93c228.286-1.609,452.715,35.115,666.523,109.075
					c214.077,49.993,378.882,221.694,420.01,437.708c20.435,107.354,9.922,217.051-30.41,317.241
					c-41.167,102.28-110.601,187.036-200.781,245.107c-9.438,6.069-23.433,10.435-42.061,4.15
					c-11.094,42.588-41.001,76.973-89.243,102.485c-276.313,174.063-592.832,277.783-915.386,299.961
					C1910.459,2826.312,1866.797,2827.806,1823.243,2827.806z M1004.756,2540.707c5.425,0,10.645,2.236,14.395,6.245
					c4.277,4.58,6.128,10.918,4.976,17.08c-5.005,26.738-1.812,41.328,3.574,43.926
					c570.562,275.635,1268.491,230.288,1821.445-118.354c0.439-0.273,0.889-0.532,1.348-0.776
					c46.968-24.663,71.016-57.314,73.525-99.824c0.425-7.266,4.829-13.706,11.445-16.743s14.36-2.183,20.161,2.231
					c4.082,3.105,17.847,12.983,23.862,9.087c166.846-107.432,252.773-317.144,213.809-521.838
					c-38.276-201.033-191.836-360.759-391.211-406.924c-0.679-0.159-1.348-0.351-2.007-0.578
					c-416.973-144.478-881.748-142.168-1308.735,6.497h0.005c-74.492,25.95-114.058,56.582-128.286,99.324
					c-3.33,9.995-13.916,15.596-24.053,12.739c-19.565-5.523-39.639-5.188-59.624,1.006
					c-191.494,59.268-350.977,192.249-437.568,364.846c-74.81,149.099-86.357,314.871-32.519,466.765
					c34.956,98.652,125.557,143.379,193.149,135.43C1003.218,2540.751,1003.99,2540.707,1004.756,2540.707z"/>
			</g>
			<g style="opacity:0.5;">
				<path style="fill-rule:evenodd;clip-rule:evenodd;fill:#FFFFFF;" d="M998.699,2376.119
					c303.328-309.651,429.024-565.877,377.109-768.628C950.086,1803.852,824.388,2060.054,998.699,2376.119"/>
			</g>
			<g style="opacity:0.5;">
				<path style="fill-rule:evenodd;clip-rule:evenodd;fill:#FFFFFF;" d="M1066.503,2468.011
					c522.072-321.357,1164.158-380.856,1736.369-160.85c-250.68,207.197-553.126,325.136-863.248,349.835
					c25.294,2.36,42.579,8.042,42.854,15.326c0.389,10.653-35.854,20.666-80.953,22.338c-45.099,1.67-81.983-5.59-82.372-16.244
					c-0.253-6.461,12.931-12.671,33.367-16.931C1583.728,2667.764,1312.246,2604.165,1066.503,2468.011"/>
			</g>
			<g style="opacity:0.5;">
				<path style="fill-rule:evenodd;clip-rule:evenodd;fill:#FFFFFF;" d="M2610.29,2201.522
					c-93.863-252.491-79.027-484.499,44.48-696.027c151.574,34.343,274.726,144.379,325.838,291.141
					c51.124,146.76,22.967,309.489-74.469,430.57C2778.002,2171.58,2679.386,2163.01,2610.29,2201.522"/>
			</g>
			<g style="opacity:0.3;">
				<path style="fill-rule:evenodd;clip-rule:evenodd;fill:#650001;" d="M2918.12,1474.819
					c151.332,72.784,262.274,213.796,294.531,383.237c39.748,208.825-43.792,427.02-222.514,542.095
					c-15.199,9.783-33.219,0.092-46.439-9.987c-2.932,49.507-30.939,88.225-84.045,116.107
					c-553.642,349.08-1251.182,404.109-1840.519,119.429c-20.893-10.081-18.66-42.474-14.376-65.293
					c-74.067,8.75-174.71-37.435-214.024-148.412c-125.639-354.464,103.324-724.871,456.652-848.333
					c10.562,2.062,21.111,4.331,31.65,6.782c-171.32,44.489-312.137,166.257-380.924,329.329
					c-68.787,163.097-57.688,348.92,30.012,502.645c25.466-31.134,65.282-44.215,119.429-39.267
					c46.406,25.269,49.545,64.836,9.417,118.627c-19.784,43.025-21.295,82.752,9.417,95.857
					c485.921,207.448,1036.067,186.829,1522.734-18.854c204.241-86.325,273.544-171.275,201.022-271.714
					c0,0,5.145-18.716,15.408-56.151c71.524-18.627,123.793-7.493,156.805,33.355c103.439-108.387,157.371-254.757,148.984-404.337
					C3102.958,1710.379,3033.015,1570.948,2918.12,1474.819"/>
			</g>
			<g style="opacity:0.3;">
				<path style="fill-rule:evenodd;clip-rule:evenodd;fill:#650001;" d="M992.801,2365.168c6.069-1.192,12.394-2.039,19.014-2.52
					l-13.116,13.471C996.684,2372.455,994.748,2368.811,992.801,2365.168"/>
			</g>
			<g>
				<path style="fill-rule:evenodd;clip-rule:evenodd;fill:#FFBD02;" d="M2459.049,1477.338
					c96.075,3.298,158.297,1.49,186.672-5.429c-16.462,42.795-11.857,72.303,13.825,88.5
					c292.584,80.62,376.549,452.153,152.123,656.462c-19.486,17.733-23.516,44.102-21.524,70.197
					c-20.607,2.932-36.048,14.435-53.035,26.531c-463.367,329.995-1071.684,375.883-1583.331,127.197
					c-22.979-9.372-48.341-11.113-72.374-4.995c13.184-30.357,10.792-54.504-7.181-72.441
					c-182.972-219.157-101.527-488.234,296.443-726.729C1692.814,1443.592,2088.515,1416.007,2459.049,1477.338z"/>
			</g>
			<g>
				<path style="fill:#650001;" d="M1840.645,2619.061c-236.172,0.01-473.794-52.905-694.868-160.249
					c-18.794-7.524-39.902-8.926-59.507-3.916c-7.285,1.86-14.995-0.601-19.868-6.323c-4.873-5.728-6.064-13.726-3.066-20.62
					c12.93-29.78,4.463-43.169-3.032-50.649c-0.42-0.42-0.82-0.859-1.206-1.318c-79.478-95.19-110.64-197.451-92.617-303.94
					c26.626-157.373,162.891-313.782,394.058-452.317c371.465-222.59,803.223-211.064,1100.459-162.038
					c115.923,3.945,161.914-0.498,180.059-4.922c7.114-1.741,14.619,0.623,19.463,6.13c4.844,5.505,6.226,13.245,3.594,20.088
					c-17.041,44.294-4.023,57.886,3.672,63.267c141.274,40.046,245.845,148.972,280.054,291.953
					c35.103,146.721-10.845,295.222-122.9,397.239c-12.129,11.035-17.08,28.735-15.146,54.131
					c0.786,10.352-6.597,19.541-16.875,21.001c-15.02,2.139-27.07,10.728-42.324,21.611l-2.051,1.46
					C2479.366,2521.342,2161.417,2619.042,1840.645,2619.061z M1109.883,2412.552c17.539,0,35.068,3.364,51.338,9.995
					c0.396,0.166,0.786,0.337,1.172,0.527c508.496,247.163,1107.515,199.067,1563.286-125.527l2.031-1.445
					c12.925-9.224,26.182-18.677,42.324-24.312c0.752-29.683,10.259-53.013,28.374-69.492
					c101.279-92.197,142.813-226.377,111.099-358.926c-31.055-129.814-126.455-228.494-255.195-263.967
					c-1.865-0.515-3.643-1.299-5.273-2.329c-19.702-12.424-38.916-36.233-30.698-81.184c-35.161,3.242-88.018,3.608-159.966,1.138
					c-0.854-0.029-1.704-0.115-2.544-0.254c-290.776-48.132-713.311-60.003-1075.039,156.755
					c-220.977,132.429-350.811,279.421-375.459,425.09c-15.967,94.38,12.119,185.713,83.491,271.475
					c12.427,12.705,23.931,32.861,19.79,62.466C1109.034,2412.557,1109.458,2412.552,1109.883,2412.552z"/>
			</g>
			<g style="opacity:0.3;">
				<path style="fill-rule:evenodd;clip-rule:evenodd;fill:#650001;" d="M1254.329,2410.394l3.723,2.726l14.594-7.974
					C1266.333,2407.391,1260.229,2409.134,1254.329,2410.394 M1783.08,2372.089c90.632-8.34,167.907,26.047,172.591,76.862
					c4.673,50.793-65.007,98.742-155.639,107.082c-90.63,8.338-167.906-26.05-172.591-76.84
					C1622.768,2428.399,1692.448,2380.426,1783.08,2372.089z M1567.576,1982.412c74.881-6.895,138.732,21.513,142.605,63.485
					c3.859,41.97-53.725,81.581-128.607,88.5c-74.881,6.874-138.732-21.536-142.603-63.529
					C1435.113,2028.918,1492.685,1989.307,1567.576,1982.412z M1225.072,1897.576c56.36-18.878,110.644-8.568,121.217,23.023
					c10.562,31.593-26.564,72.488-82.921,91.367c-56.372,18.855-110.634,8.568-121.217-23.049
					C1131.578,1957.347,1168.715,1916.431,1225.072,1897.576z M2390.938,1893.384c58.948-7.676,110.221,12.875,114.529,45.934
					c4.284,33.013-40.025,66.004-98.972,73.701c-58.936,7.653-110.198-12.898-114.514-45.958
					C2287.694,1934.026,2332.002,1901.037,2390.938,1893.384z M2688.62,1988.094c74.882-6.897,138.741,21.513,142.603,63.482
					c3.859,41.995-53.714,81.584-128.604,88.502c-74.87,6.895-138.732-21.536-142.594-63.506
					C2556.154,2034.6,2613.738,1994.989,2688.62,1988.094z M1999.818,1796.153c81.481-31.042,196.34-43.115,270.968-74.755
					c-13.745,47.286-48.649,85.248-94.205,104.011C2116.74,1850.037,2042.466,1820.828,1999.818,1796.153z M2717.567,1825.02
					c40.618-13.609,79.737-6.186,87.367,16.609c7.606,22.751-19.141,52.236-59.773,65.845
					c-40.618,13.586-79.726,6.163-87.367-16.633C2650.176,1868.092,2676.946,1838.605,2717.567,1825.02z M2349.461,2372.753
					c27.434-9.44,38.556-15.556,29.85-32.074c-22.498-37.39-65.178-57.688-108.351-51.548
					c-43.187,6.163-83.027,36.633-89.647,79.728c-3.266,21.306,20.722,26.484,58.098,14.96c21.456-0.298,20.551,15.99,17.137,52.531
					c-1.832,19.498,22.613,31.729,42.143,30.516c19.53-1.192,39.347-15.969,38.042-35.488
					C2334.764,2401.709,2333.023,2378.411,2349.461,2372.753z M1280.86,2171.923c27.434-9.438,38.568-15.556,29.85-32.074
					c-22.498-37.388-65.167-57.685-108.352-51.525c-43.187,6.142-83.027,36.611-89.647,79.728
					c-3.266,21.283,20.722,26.46,58.098,14.937c21.456-0.274,20.551,15.99,17.137,52.555c-1.82,19.474,22.613,31.708,42.143,30.493
					c19.53-1.189,39.347-15.967,38.054-35.488C1266.162,2200.905,1264.433,2177.581,1280.86,2171.923z M2174.817,2177.719
					c41.719-9.691,79.979,1.375,85.408,24.788c5.431,23.368-23.985,50.197-65.716,59.909c-41.73,9.691-79.968-1.396-85.419-24.788
					C2103.67,2214.237,2133.098,2187.434,2174.817,2177.719z M1679.927,2590.786c-180.096-18.557-358.323-68.432-526.15-149.99
					c-22.979-9.372-48.341-11.113-72.374-4.995c13.184-30.357,10.792-54.504-7.181-72.441
					c-182.972-219.134-101.527-488.234,296.443-726.729c100.518-60.229,208.194-104.331,320.029-134.688
					c-562.165,278.862-715.857,574.308-550.022,799.055c62.647,77.274,152.099,80.254,268.401,8.821
					c-25.339,23.941-48.947,43.689-70.86,59.266c154.321-85.431,368.725-207.197,643.231-365.344
					c16.736-23.3,27.183-41.972,31.307-56.038c-4.042-43.459-0.938-82.248,9.278-116.337
					c20.905,59.245,82.717,55.053,185.422-12.577c0,0,3.678,14.158,11.01,42.453c-85.741,60.414-80.77,109.119,14.925,146.143
					c-37.709,14.135-56.576,21.215-56.576,21.215c-96.532-45.822-177.403-34.434-242.628,34.09
					c7.09-8.202,13.712-16.037,19.875-23.551c-128.055,90.745-291.92,192.488-491.579,305.229
					c-95.456,55.97-122.695,102.958-81.708,140.942C1464.505,2526.318,1564.564,2561.897,1679.927,2590.786z"/>
			</g>
			<g>
				<path style="fill:#650001;" d="M1003.179,2589.916c-0.332,0-0.664-0.005-1.001-0.024c-10.869-0.542-19.238-9.795-18.691-20.664
					c3.555-71.011,51.338-133.594,118.901-155.728c10.322-3.369,21.47,2.246,24.858,12.593c3.389,10.342-2.251,21.47-12.593,24.858
					c-52.168,17.09-89.063,65.415-91.812,120.249C1022.315,2581.732,1013.609,2589.916,1003.179,2589.916z"/>
			</g>
			<g>
				<path style="fill:#650001;" d="M958.091,2578.734c-5.093,0-10.181-1.958-14.033-5.874
					c-58.789-59.658-50.244-113.022-39.917-139.521c17.31-44.429,63.271-77.144,111.763-79.551
					c39.478-1.987,72.319,16.841,90,51.587c4.937,9.697,1.079,21.558-8.623,26.494c-9.683,4.946-21.558,1.079-26.494-8.623
					c-13.428-26.382-36.157-30.938-52.93-30.098c-32.949,1.636-65.332,24.556-76.997,54.497
					c-12.026,30.859-1.216,64.595,31.265,97.559c7.642,7.749,7.549,20.225-0.205,27.861
					C968.081,2576.849,963.086,2578.734,958.091,2578.734z"/>
			</g>
			<g>
				<path style="fill:#650001;" d="M2939.234,2437.22c-0.229,0-0.459,0-0.688-0.01c-10.874-0.371-19.39-9.487-19.019-20.366
					c1.113-32.593-12.334-63.608-36.89-85.093c-24.541-21.465-57.085-30.654-89.224-25.254c-10.713,1.836-20.898-5.425-22.7-16.157
					c-1.807-10.732,5.425-20.894,16.157-22.7c43.853-7.407,88.228,5.166,121.709,34.448c33.506,29.316,51.851,71.631,50.332,116.104
					C2958.55,2428.837,2949.805,2437.22,2939.234,2437.22z"/>
			</g>
			<g>
				<path style="fill:#650001;" d="M2962.364,2283.973c-5.332,0-10.649-2.153-14.536-6.396
					c-35.645-38.931-93.442-49.497-140.576-25.708c-9.697,4.917-21.558,1.011-26.47-8.706c-4.907-9.712-1.006-21.563,8.706-26.47
					c62.817-31.714,139.878-17.632,187.402,34.272c7.349,8.027,6.802,20.488-1.226,27.837
					C2971.885,2282.264,2967.115,2283.973,2962.364,2283.973z"/>
			</g>
			<g>
				<path style="fill:#650001;" d="M1370.655,1656.339c-2.651,0-5.342-0.537-7.92-1.672c-9.961-4.38-14.487-16.006-10.107-25.967
					c5.591-12.712,4.629-27.378-2.563-39.233c-7.192-11.882-19.751-19.517-33.608-20.439c-10.854-0.725-19.072-10.115-18.345-20.972
					c0.723-10.857,10-19.072,20.972-18.35c26.67,1.78,50.854,16.484,64.683,39.336c13.848,22.813,15.693,51.052,4.937,75.518
					C1385.455,1651.942,1378.233,1656.339,1370.655,1656.339z"/>
			</g>
			<g>
				<path style="fill:#650001;" d="M1445.972,1568.849c-8.232,0-15.908-5.198-18.677-13.428
					c-7.07-21.021-25.073-36.289-46.982-39.849c-10.742-1.746-18.037-11.868-16.289-22.608c1.748-10.737,11.88-18.052,22.607-16.289
					c36.382,5.911,66.274,31.27,78.018,66.182c3.467,10.315-2.08,21.489-12.397,24.958
					C1450.171,1568.517,1448.052,1568.849,1445.972,1568.849z"/>
			</g>
			<g>
				<path style="fill:#650001;" d="M1181.993,2473.856c-7.026,0-13.828-3.77-17.383-10.4c-5.137-9.59-1.533-21.533,8.062-26.675
					c569.282-305.151,1058.647-613.655,1454.502-916.938c8.643-6.616,21.006-4.976,27.622,3.66
					c6.621,8.638,4.98,21.006-3.657,27.625c-397.534,304.57-888.701,614.233-1459.854,920.391
					C1188.326,2473.104,1185.137,2473.856,1181.993,2473.856z"/>
			</g>
			<g>
				<path style="fill:#650001;" d="M2801.373,2305.399c-2.632,0-5.308-0.527-7.871-1.65
					c-490.664-214.16-965.435-436.746-1411.123-661.575c-9.717-4.902-13.623-16.75-8.721-26.467
					c4.902-9.714,16.763-13.618,26.465-8.718c445.044,224.502,919.146,446.775,1409.141,660.647
					c9.976,4.351,14.531,15.967,10.176,25.938C2816.207,2300.98,2808.97,2305.399,2801.373,2305.399z"/>
			</g>
			<g>
				<path style="fill-rule:evenodd;clip-rule:evenodd;fill:#FFD8AD;" d="M2387.961,2338.18
					c27.434-9.438,38.556-15.554,29.838-32.072c-22.486-37.39-65.155-57.688-108.352-51.548
					c-43.173,6.139-83.015,36.632-89.635,79.749c-3.266,21.261,20.722,26.46,58.098,14.937
					c21.445-0.298,20.563,15.992,17.137,52.533c-1.832,19.495,22.613,31.729,42.155,30.517
					c19.519-1.192,39.337-15.969,38.042-35.488C2373.263,2367.139,2371.534,2343.841,2387.961,2338.18z"/>
			</g>
			<g>
				<path style="fill:#650001;" d="M2334.439,2452.084c-17.559,0-35.562-7.1-46.758-18.647c-9.048-9.346-13.403-21.24-12.251-33.496
					c0.835-8.872,2.109-22.52,1.714-29.956c-29.917,8.149-51.914,6.348-65.474-5.347c-9.365-8.086-13.389-19.917-11.333-33.32
					c7.495-48.843,51.226-88.433,106.338-96.265c51.133-7.266,101.392,16.641,128.008,60.898c0.19,0.313,0.371,0.635,0.542,0.957
					c5.693,10.786,6.719,20.957,3.047,30.234c-6.104,15.42-22.373,22.231-43.066,29.38c-2.529,5.669-1.23,25.063-0.361,38.081
					l0.059,0.894c0.845,12.715-3.589,25.273-12.476,35.371c-10.723,12.183-27.178,20.063-44.023,21.094
					C2337.085,2452.045,2335.767,2452.084,2334.439,2452.084z M2278.448,2329.54c11.895,0,21.313,3.677,28.013,10.933
					c12.822,13.882,10.884,34.546,8.208,63.145c-0.029,0.288-0.088,0.942,1.313,2.393c4.033,4.16,12.852,7.124,19.995,6.616
					c6.431-0.391,13.042-3.452,16.87-7.798c2.959-3.359,2.793-5.884,2.734-6.714l-0.059-0.884
					c-2.207-33.018-4.487-67.163,26.016-77.681c0.005,0,0.01-0.005,0.015-0.005c7.798-2.681,13.56-4.907,17.231-6.65
					c-18.911-28.506-52.49-43.652-86.563-38.828c-37.227,5.293-66.733,30.283-72.573,61.152c4.668,0.708,15.093,0.547,32.456-4.8
					c1.792-0.552,3.657-0.85,5.532-0.874C2277.911,2329.54,2278.179,2329.54,2278.448,2329.54z M2394.38,2356.805c0,0,0,0,0.005,0
					H2394.38z"/>
			</g>
			<g>
				<path style="fill-rule:evenodd;clip-rule:evenodd;fill:#EB2D04;" d="M1807.148,2329.704
					c90.63-8.34,167.907,26.071,172.58,76.864c4.685,50.791-64.995,98.742-155.628,107.08
					c-90.632,8.364-167.918-26.047-172.592-76.84C1646.823,2386.017,1716.515,2338.067,1807.148,2329.704z"/>
			</g>
			<g>
				<path style="fill:#650001;" d="M1797.085,2534.603c-36.65,0-71.226-6.592-99.531-19.194
					c-39.404-17.539-62.725-44.814-65.664-76.797c-2.954-31.973,14.99-63.052,50.522-87.5
					c32.134-22.109,75.786-36.68,122.925-41.025c0.005,0,0.005,0,0.005,0c47.153-4.355,92.725,2.007,128.345,17.876
					c39.399,17.544,62.72,44.819,65.659,76.797c2.954,31.978-14.99,63.052-50.518,87.5c-32.134,22.109-75.786,36.675-122.92,41.006
					C1816.211,2534.164,1806.573,2534.603,1797.085,2534.603z M1808.956,2349.325c-40.532,3.74-77.539,15.903-104.204,34.253
					c-22.925,15.776-35.181,34.517-33.623,51.416c1.558,16.909,17.031,33.096,42.456,44.419
					c29.57,13.164,68.184,18.35,108.706,14.614c40.532-3.73,77.534-15.884,104.199-34.233
					c22.925-15.771,35.176-34.512,33.618-51.416c-1.558-16.909-17.031-33.096-42.451-44.414
					C1888.091,2350.795,1849.483,2345.604,1808.956,2349.325L1808.956,2349.325z"/>
			</g>
			<g>
				<path style="fill-rule:evenodd;clip-rule:evenodd;fill:#EB2D04;" d="M2704.335,1939.363
					c74.893-6.895,138.732,21.536,142.603,63.508c3.873,41.97-53.711,81.582-128.604,88.479
					c-74.882,6.918-138.732-21.513-142.603-63.485C2571.87,1985.893,2629.442,1946.284,2704.335,1939.363z"/>
			</g>
			<g>
				<path style="fill:#650001;" d="M2696.011,2112.094c-30.757,0-59.81-5.547-83.623-16.152
					c-33.735-15.02-53.721-38.555-56.274-66.27c-4.937-53.601,59.38-101.887,146.411-109.927c0-0.002,0.005-0.002,0.005-0.002
					c87.021-8.013,159.082,27.705,164.028,81.321c2.559,27.71-12.788,54.502-43.218,75.435
					c-27.021,18.589-63.672,30.835-103.198,34.473C2712.027,2111.722,2703.96,2112.094,2696.011,2112.094z M2706.148,1958.986
					c-68.35,6.313-113.247,40.417-110.796,67.073c1.172,12.7,13.223,25.049,33.066,33.882c23.555,10.493,55.669,14.79,88.105,11.792
					c32.446-2.988,63.237-13.086,84.482-27.7c17.891-12.309,27.485-26.655,26.313-39.35c-2.461-26.665-52.817-51.985-121.177-45.696
					H2706.148z"/>
			</g>
			<g>
				<path style="fill-rule:evenodd;clip-rule:evenodd;fill:#EB2D04;" d="M2402.691,1856.017
					c58.948-7.674,110.219,12.898,114.514,45.934c4.298,33.036-40.01,66.028-98.946,73.678
					c-58.948,7.676-110.221-12.898-114.517-45.934C2299.447,1896.683,2343.756,1863.67,2402.691,1856.017z"/>
			</g>
			<g>
				<path style="fill:#650001;" d="M2393.809,1996.937c-22.09,0-42.998-3.645-60.64-10.72c-28.54-11.45-45.928-30.62-48.97-53.979
					c-3.032-23.352,8.877-46.326,33.535-64.693c21.357-15.906,50.625-26.938,82.412-31.067l0,0
					c31.792-4.138,62.92-0.962,87.632,8.953c28.54,11.448,45.928,30.618,48.97,53.979c3.037,23.362-8.872,46.34-33.535,64.704
					c-21.353,15.899-50.625,26.926-82.422,31.055C2411.7,1996.354,2402.657,1996.937,2393.809,1996.937z M2426.983,1874.135
					c-7.134,0-14.434,0.469-21.748,1.421c-0.005,0-0.005,0-0.005,0c-24.844,3.228-48.154,11.826-63.955,23.594
					c-12.534,9.336-19.097,19.544-17.993,28.008c1.099,8.469,10.054,16.665,24.561,22.485c18.281,7.329,43.027,9.685,67.871,6.448
					c24.854-3.225,48.164-11.821,63.965-23.584c12.534-9.333,19.092-19.543,17.988-28.013c-1.099-8.472-10.054-16.67-24.561-22.488
					C2460.206,1876.83,2444.087,1874.135,2426.983,1874.135z M2402.691,1856.017h0.049H2402.691z"/>
			</g>
			<g>
				<path style="fill-rule:evenodd;clip-rule:evenodd;fill:#EB2D04;" d="M1591.599,1939.363
					c74.891-6.895,138.741,21.536,142.603,63.508c3.871,41.97-53.714,81.582-128.595,88.479
					c-74.891,6.918-138.741-21.513-142.603-63.485C1459.133,1985.893,1516.718,1946.284,1591.599,1939.363z"/>
			</g>
			<g>
				<path style="fill:#650001;" d="M1583.282,2112.094c-30.757,0-59.81-5.547-83.628-16.152
					c-33.735-15.02-53.721-38.555-56.27-66.27c-4.946-53.599,59.36-101.885,146.401-109.927c0-0.002,0.005-0.002,0.005-0.002
					c39.526-3.63,77.803,1.706,107.764,15.049c33.735,15.027,53.721,38.564,56.265,66.277c2.559,27.705-12.788,54.497-43.213,75.43
					c-27.021,18.589-63.672,30.835-103.193,34.473C1599.297,2111.722,1591.231,2112.094,1583.282,2112.094z M1593.409,1958.983
					c-68.35,6.316-113.242,40.417-110.786,67.07c1.172,12.705,13.223,25.054,33.062,33.887c23.564,10.493,55.693,14.79,88.11,11.792
					c32.441-2.988,63.232-13.086,84.473-27.7c17.896-12.309,27.485-26.655,26.313-39.35c-1.167-12.703-13.218-25.054-33.062-33.889
					c-23.555-10.491-55.669-14.792-88.115-11.807L1593.409,1958.983z"/>
			</g>
			<g>
				<path style="fill-rule:evenodd;clip-rule:evenodd;fill:#EB2D04;" d="M1232.152,1852.008
					c56.358-18.878,110.632-8.568,121.205,23.026c10.573,31.591-26.552,72.486-82.912,91.364
					c-56.369,18.855-110.644,8.544-121.217-23.047C1138.656,1911.781,1175.783,1870.863,1232.152,1852.008z"/>
			</g>
			<g>
				<path style="fill:#650001;" d="M1216.041,1995.463c-42.104,0-75.679-16.519-85.498-45.859
					c-7.476-22.327-0.21-47.165,20.454-69.934c17.896-19.717,44.492-36.174,74.897-46.345l0,0
					c30.41-10.185,61.553-13.059,87.71-8.086c30.205,5.737,50.962,21.201,58.442,43.54c14.233,42.544-27.646,93.63-95.342,116.304
					C1255.679,1992.113,1234.996,1995.46,1216.041,1995.463z M1287.256,1862.281c-15.327,0-32.319,2.874-48.843,8.411
					c-0.005,0-0.005,0.002-0.01,0.002c-23.765,7.949-44.985,20.872-58.228,35.459c-10.503,11.572-14.971,22.849-12.261,30.94
					c6.079,18.181,48.54,26.58,96.279,10.618c47.71-15.979,76.563-48.25,70.479-66.426c-2.71-8.098-13.071-14.417-28.428-17.334
					C1300.357,1862.833,1293.965,1862.281,1287.256,1862.281z M1232.154,1852.008h0.049H1232.154z"/>
			</g>
			<g>
				<path style="fill-rule:evenodd;clip-rule:evenodd;fill:#EB2D04;" d="M2700.866,1792.763
					c40.618-13.609,79.738-6.163,87.355,16.586c7.617,22.775-19.141,52.259-59.761,65.868c-40.63,13.586-79.738,6.163-87.367-16.609
					C2633.475,1835.835,2660.233,1806.372,2700.866,1792.763z"/>
			</g>
			<g>
				<path style="fill:#650001;" d="M2688.648,1901.84c-32.588,0-58.296-13.264-66.235-36.975
					c-11.426-34.148,19.614-73.174,72.192-90.786c22.788-7.629,46.221-9.775,65.991-6.013c23.467,4.458,40.347,17.227,46.309,35.027
					c11.431,34.153-19.604,73.191-72.188,90.808C2718.648,1899.271,2702.984,1901.84,2688.648,1901.84z M2740.533,1805.665
					c-10.425,0-22.051,1.975-33.408,5.781l0,0c-34.043,11.401-50,32.966-47.344,40.911c2.656,7.932,28.374,15.552,62.427,4.172
					c34.033-11.401,49.985-32.979,47.324-40.925c-1.24-3.716-7.637-7.18-16.294-8.826
					C2749.307,1806.031,2745.03,1805.665,2740.533,1805.665z M2700.865,1792.762h0.049H2700.865z"/>
			</g>
			<g>
				<path style="fill-rule:evenodd;clip-rule:evenodd;fill:#EB2D04;" d="M2166.282,2135.131c41.733-9.691,79.968,1.396,85.41,24.788
					c5.44,23.392-23.988,50.197-65.718,59.909c-41.73,9.715-79.968-1.398-85.408-24.788
					C2095.136,2171.671,2124.552,2144.843,2166.282,2135.131z"/>
			</g>
			<g>
				<path style="fill:#650001;" d="M2156.285,2243.041c-11.416,0-22.31-1.421-32.119-4.272
					c-22.939-6.66-38.535-20.972-42.788-39.268c-8.154-35.068,26.431-70.991,80.439-83.56c0.005,0,0.005-0.005,0.01-0.005
					c54.009-12.544,100.889,4.443,109.058,39.512c8.159,35.073-26.431,71.001-80.444,83.569
					C2178.912,2241.703,2167.354,2243.041,2156.285,2243.041z M2170.752,2154.32c-34.971,8.14-52.891,28.101-50.991,36.26
					c0.889,3.828,6.934,7.886,15.396,10.347c12.744,3.696,29.644,3.599,46.348-0.288c34.976-8.14,52.896-28.101,50.996-36.26
					C2230.606,2156.219,2205.723,2146.2,2170.752,2154.32L2170.752,2154.32z"/>
			</g>
			<g>
				<path style="fill-rule:evenodd;clip-rule:evenodd;fill:#FFD8AD;" d="M1320.849,2137.054
					c27.434-9.438,38.556-15.556,29.839-32.074c-22.486-37.388-65.167-57.688-108.34-51.548
					c-43.187,6.142-83.027,36.635-89.647,79.752c-3.266,21.283,20.722,26.46,58.098,14.937c21.445-0.274,20.551,15.99,17.137,52.531
					c-1.832,19.497,22.613,31.732,42.143,30.517c19.53-1.213,39.347-15.967,38.042-35.488
					C1306.152,2166.013,1304.411,2142.713,1320.849,2137.054z"/>
			</g>
			<g>
				<path style="fill:#650001;" d="M1267.33,2250.956c-17.568,0-35.571-7.095-46.758-18.647
					c-9.053-9.341-13.408-21.235-12.256-33.496c0.879-9.419,2.119-22.671,1.719-29.956c-29.912,8.154-51.929,6.362-65.474-5.337
					c-9.37-8.081-13.394-19.917-11.338-33.325c7.505-48.843,51.235-88.433,106.353-96.27
					c51.118-7.246,101.377,16.636,127.998,60.898c0.19,0.317,0.371,0.635,0.542,0.962c5.688,10.786,6.714,20.952,3.042,30.229
					c-6.104,15.42-22.373,22.236-43.071,29.385c-2.52,5.659-1.235,24.985-0.371,37.954l0.063,1.025
					c0.85,12.681-3.569,25.229-12.441,35.322c-10.708,12.188-27.173,20.083-44.038,21.133
					C1269.981,2250.912,1268.653,2250.956,1267.33,2250.956z M1211.294,2128.412c11.919,0,21.353,3.682,28.062,10.952
					c12.798,13.867,10.869,34.526,8.198,63.12c-0.029,0.293-0.088,0.952,1.318,2.402c4.023,4.155,12.749,7.119,19.98,6.611
					c6.338-0.391,13.125-3.53,16.89-7.813c2.939-3.35,2.773-5.864,2.72-6.689l-0.068-1.03c-2.192-32.959-4.453-67.046,26.045-77.544
					l0,0c7.803-2.686,13.564-4.912,17.236-6.655c-18.911-28.506-52.466-43.696-86.553-38.828
					c-37.231,5.298-66.748,30.293-72.593,61.162c4.712,0.698,15.103,0.542,32.466-4.81c1.802-0.557,3.672-0.85,5.557-0.874
					C1210.801,2128.412,1211.05,2128.412,1211.294,2128.412z M1320.85,2137.054l6.411,18.633c0,0,0.005,0,0.005-0.005
					c0,0.005-0.005,0.005-0.005,0.005L1320.85,2137.054z"/>
			</g>
			<g>
				<path style="fill-rule:evenodd;clip-rule:evenodd;fill:#FF8906;" d="M1688.748,1891.39
					c461.016-139.476,875.504-340.625,1267.47-530.846c170.874,155.191,433.744-210.566,71.916-457.924
					c-279.824-189.124-629.762-242.732-953.376-146.03c-125.592,43.668-131.126,229.491-43.14,278.724
					c-234.22,332.813-371.484,567.204-411.83,703.13C1591.484,1836.245,1617.555,1912.926,1688.748,1891.39z"/>
			</g>
			<g>
				<path style="fill:#650001;" d="M1666.143,1914.689c-19.126,0-36.03-6.628-49.136-19.575
					c-30.713-30.344-36.748-90.962-16.143-162.149c40.151-135.288,175.791-368.281,403.286-692.829
					c-36.577-30.828-56.235-85.186-50.991-144.819c6.572-74.643,50.684-134.929,115.127-157.336c0.273-0.095,0.552-0.186,0.83-0.269
					c330.62-98.792,684.18-44.626,970.054,148.584c134.565,91.995,203.076,215.059,188.047,337.695
					c-10.566,86.214-61.924,158.464-130.835,184.07c-48.853,18.149-100.293,9.267-143.071-24.204
					c-393.594,191.006-800.801,387.815-1258.853,526.394c-0.005,0-0.005,0-0.005,0
					C1684.639,1913.219,1675.147,1914.689,1666.143,1914.689z M1688.75,1891.39h0.049H1688.75z M2080.821,775.343
					c-50.112,17.61-83.149,63.716-88.403,123.428c-4.614,52.461,15.005,100.425,48.823,119.348c4.868,2.725,8.35,7.385,9.59,12.825
					c1.235,5.439,0.112,11.147-3.101,15.71c-231.865,329.47-369.492,564.109-409.048,697.395
					c-18.193,62.854-10.093,107.109,6.025,123.032c3.271,3.232,13.213,13.057,38.34,5.449
					c459.526-139.026,868.784-337.639,1264.57-529.714c7.241-3.511,15.884-2.275,21.851,3.142
					c33.872,30.757,74.058,39.7,113.188,25.164c54.409-20.217,96.787-81.272,105.444-151.926
					c13.179-107.512-49.18-216.97-171.084-300.308C2741.163,732.448,2399.937,680.123,2080.821,775.343z"/>
			</g>
			<g style="opacity:0.5;">
				<path style="fill-rule:evenodd;clip-rule:evenodd;fill:#FFFFFF;" d="M3205.515,1145.945
					c-13.919-79.885-66.04-167.196-177.38-243.325c-279.824-189.124-629.751-242.732-953.376-146.03
					c-35.706,12.417-61.709,36.337-78.604,65.317c175.205-57.688,357.532-70.996,532.578-43.804
					c-2.041,1.147-3.357,2.543-3.815,4.239c-2.853,10.494,27.434,27.835,67.618,38.763c40.205,10.951,75.1,11.319,77.938,0.873
					c1.204-4.422-3.517-10.081-12.405-15.993C2865.164,863.282,3056.268,978.885,3205.515,1145.945"/>
			</g>
			<g style="opacity:0.3;">
				<path style="fill-rule:evenodd;clip-rule:evenodd;fill:#650001;" d="M1688.748,1891.39
					c461.027-139.476,875.504-340.625,1267.47-530.823c108.183,98.238,253.178-12.349,253.225-169.488
					c-10.447-66.83-84.035-109.144-144.562-90.609c-34.732,8.5-78.501,29.918-117.187,7.627l0.012,0.024
					c-265.675-177.713-589.083-235.675-909.673-199.591c-30.174,3.39-40.656-43.368-41.88-86.623l-0.023,0.047
					c-20.928,67.698-25.292,118.972-13.093,153.749c1.72,4.49,3.655,8.865,5.773,13.081c13.013,23.758,36.151,37.458,69.406,41.102
					c351.953-55.557,633.725,13.379,845.288,206.761c8.544,63.187-53.359,107.631-185.687,133.36
					c-512.806,182.548-876.731,298.906-1091.878,349.148c-2.257,6.644-4.307,13.06-6.151,19.291
					C1591.484,1836.245,1617.555,1912.926,1688.748,1891.39"/>
			</g>
			<g>
				<path style="fill:#650001;" d="M1666.143,1914.689c-19.126,0-36.03-6.628-49.136-19.575
					c-30.713-30.344-36.748-90.962-16.143-162.149c40.151-135.288,175.791-368.281,403.286-692.829
					c-36.577-30.828-56.235-85.186-50.991-144.819c6.572-74.643,50.684-134.929,115.127-157.336c0.273-0.095,0.552-0.186,0.83-0.269
					c330.605-98.782,684.175-44.629,970.054,148.584c134.565,91.995,203.071,215.056,188.047,337.69
					c-10.566,86.218-61.924,158.477-130.84,184.087c-48.818,18.145-100.288,9.277-143.062-24.192
					c-393.877,191.113-800.962,387.839-1258.857,526.37c-0.005,0-0.005,0-0.005,0
					C1684.639,1913.219,1675.147,1914.689,1666.143,1914.689z M1688.75,1891.39h0.049H1688.75z M2080.821,775.343
					c-50.112,17.61-83.149,63.716-88.403,123.428c-4.614,52.461,15.005,100.425,48.823,119.348c4.868,2.725,8.35,7.385,9.59,12.825
					c1.235,5.439,0.112,11.147-3.101,15.71c-231.865,329.47-369.492,564.109-409.048,697.395
					c-18.193,62.854-10.093,107.109,6.025,123.032c3.271,3.232,13.213,13.057,38.34,5.449
					c459.37-138.975,868.501-337.5,1264.16-529.49c7.231-3.506,16.299-2.476,22.261,2.94
					c33.872,30.759,74.072,39.692,113.184,25.151c54.414-20.22,96.792-81.282,105.449-151.938
					c13.174-107.512-49.185-216.97-171.084-300.305C2741.163,732.452,2399.952,680.123,2080.821,775.343z"/>
			</g>
			<g>
				<path style="fill-rule:evenodd;clip-rule:evenodd;fill:#FFBD02;" d="M1616.616,1750.218
					c74.147-201.515,212.49-439.825,415.002-714.905c298.345-64.538,622.511-13.952,856.147,182.456
					c49.92,41.97,4.031,97.917-91.801,126.118c-177.187,52.144-254.187,115.054-258.804,190.221
					c-3.048,49.761-16.415,100.3-12.131,155.973c0.23,122.819-121.055,123.781-102.613,5.429
					c20.654-132.693,28.021-191.024-29.027-186.304c-269.34,84.354-400.604,186.832-393.766,307.497
					c30.986,119.591,13.299,199.591-53.071,240.006c-22.979,14.341-52.508,12.624-73.654-4.284
					c-21.158-16.931-29.313-45.362-20.356-70.931c39.337-98.834,48.937-170.724,28.752-215.673
					c-22.657-23.436-56.942-22.339-102.867,3.322C1675.414,1815.329,1621.473,1809.03,1616.616,1750.218z"/>
			</g>
			<g>
				<path style="fill:#650001;" d="M1912.823,2086.093c-18.55,0-37.061-6.147-52.227-18.281
					c-27.646-22.119-38.354-59.424-26.646-92.832c0.088-0.259,0.186-0.515,0.288-0.769c36.128-90.774,46.357-157.051,30.439-197.1
					c-7.798-7.078-27.256-18.354-76.641,9.233c-0.503,0.283-1.021,0.542-1.548,0.779c-75.586,33.892-125.64,40.903-157.544,22.061
					c-13.057-7.712-29.204-23.921-31.968-57.344c-0.234-2.856,0.156-5.733,1.147-8.425
					c74.434-202.297,214.941-444.468,417.622-719.783c2.847-3.867,7.012-6.56,11.704-7.576
					c154.277-33.379,313.462-35.696,460.322-6.699c158.442,31.282,297.28,96.328,412.671,193.33
					c21.792,18.323,31.069,41.406,26.128,65.003c-8.145,38.906-54.893,74.458-125.049,95.1
					c-160.425,47.212-240.464,103.647-244.697,172.529c-1.133,18.508-3.652,37.219-6.089,55.315
					c-4.253,31.589-8.652,64.255-6.064,97.937c0.039,0.491,0.059,0.981,0.059,1.474c0.093,50.049-18.765,89.619-50.454,105.847
					c-20.874,10.686-44.238,9.189-62.495-4.009c-25.317-18.306-35.825-54.539-28.833-99.409
					c11.113-71.394,22.603-145.222,8.413-160.474c-2.363-2.542-7.178-3.623-14.307-3.296
					c-255.42,80.32-382.52,176.204-377.852,285.019c32.554,127.361,11.563,214.771-62.402,259.815
					C1943.34,2081.937,1928.067,2086.093,1912.823,2086.093z M1871.021,1988.361c-5.991,17.556-0.313,37.073,14.189,48.679
					c14.585,11.665,35.049,12.847,50.908,2.954c58.765-35.786,73.237-107.171,44.434-218.35c-0.327-1.252-0.527-2.534-0.601-3.826
					c-3.789-66.88,30.142-128.789,100.859-184.011c67.188-52.463,170.371-100.713,306.689-143.406
					c1.387-0.435,2.817-0.713,4.263-0.833c20.952-1.729,37.212,3.513,48.447,15.586c26.069,28.013,18.931,82.539,1.675,193.384
					c-5.371,34.47,3.188,54.324,12.988,61.409c6.187,4.478,13.809,4.783,21.44,0.869c13.994-7.168,28.916-29.309,29.014-69.99
					c-2.788-37.539,1.855-72.061,6.353-105.452c2.451-18.198,4.766-35.386,5.811-52.468c5.449-88.662,92.168-154.729,272.91-207.92
					c61.772-18.179,93.53-45.932,97.603-65.376c0.698-3.342,2.832-13.518-12.92-26.758
					c-211.519-177.82-522.075-244.812-832.031-179.829c-196.646,267.849-333.325,503.193-406.343,699.671
					c2.373,16.711,9.736,21.057,12.275,22.558c10.874,6.416,40.977,11.843,120.61-23.743
					c67.393-37.358,105.625-20.322,125.864,0.618c1.587,1.638,2.876,3.542,3.809,5.623
					C1921.905,1808.151,1912.662,1883.588,1871.021,1988.361z"/>
			</g>
			<g style="opacity:0.5;">
				<path style="fill-rule:evenodd;clip-rule:evenodd;fill:#FFFFFF;" d="M1649.983,1667.032
					c79.074-182.935,206.202-393.363,381.372-631.353c5.889-1.443,11.786-2.771,17.731-3.986l9.131-1.788
					c-142.603,239.823-274.393,466.609-395.403,680.358C1657.889,1695.991,1653.615,1681.558,1649.983,1667.032"/>
			</g>
			<g>
				<path style="fill:#650001;" d="M1912.818,2086.093c-18.55,0-37.061-6.152-52.222-18.281
					c-27.646-22.119-38.354-59.424-26.646-92.832c0.088-0.259,0.186-0.515,0.288-0.769c36.123-90.771,46.362-157.046,30.449-197.097
					c-7.813-7.083-27.29-18.347-76.655,9.211c-0.503,0.281-1.016,0.537-1.538,0.774c-75.586,33.909-125.645,40.918-157.544,22.087
					c-13.062-7.712-29.209-23.921-31.973-57.346c-0.234-2.856,0.156-5.733,1.147-8.425
					c74.434-202.297,214.941-444.468,417.622-719.783c2.847-3.867,7.012-6.563,11.704-7.576
					c154.312-33.369,313.491-35.679,460.327-6.692c158.447,31.282,297.285,96.323,412.666,193.323
					c21.792,18.325,31.069,41.409,26.123,65.005c-8.149,38.906-54.897,74.458-125.054,95.098
					c-160.42,47.214-240.454,103.647-244.673,172.524c-1.138,18.501-3.657,37.192-6.094,55.271
					c-4.258,31.604-8.662,64.285-6.074,97.986c0.039,0.491,0.059,0.981,0.059,1.474c0.093,50.047-18.765,89.617-50.454,105.845
					c-20.879,10.693-44.243,9.194-62.495-4.006c-25.322-18.303-35.835-54.536-28.848-99.407
					c11.123-71.392,22.627-145.212,8.428-160.474c-2.363-2.544-7.178-3.625-14.307-3.298
					c-255.42,80.32-382.52,176.204-377.852,285.019c32.554,127.368,11.563,214.78-62.417,259.815
					C1943.331,2081.937,1928.062,2086.093,1912.818,2086.093z M1871.021,1988.361c-5.991,17.556-0.313,37.073,14.189,48.679
					c14.585,11.665,35.039,12.847,50.898,2.954c58.774-35.779,73.252-107.163,44.443-218.35c-0.327-1.252-0.527-2.534-0.601-3.826
					c-3.789-66.88,30.142-128.789,100.859-184.011c67.188-52.463,170.376-100.713,306.689-143.406
					c1.387-0.435,2.817-0.713,4.263-0.833c20.942-1.733,37.222,3.518,48.452,15.591c26.074,28.025,18.931,82.546,1.655,193.384
					c-5.366,34.465,3.198,54.319,12.998,61.404c6.177,4.463,13.799,4.78,21.445,0.869c13.994-7.168,28.916-29.314,29.014-69.995
					c-2.793-37.556,1.86-72.092,6.362-105.5c2.451-18.181,4.766-35.354,5.815-52.422c5.43-88.652,92.144-154.719,272.886-207.913
					c61.772-18.176,93.535-45.932,97.607-65.376c0.698-3.342,2.832-13.518-12.915-26.76
					c-211.489-177.798-522.031-244.79-832.031-179.827c-196.646,267.849-333.325,503.193-406.343,699.671
					c2.373,16.711,9.736,21.057,12.275,22.556c10.879,6.423,40.981,11.833,120.615-23.765
					c67.378-37.332,105.625-20.291,125.869,0.637c1.587,1.643,2.876,3.547,3.809,5.63
					C1921.905,1808.156,1912.662,1883.593,1871.021,1988.361z"/>
			</g>
			<g style="opacity:0.3;">
				<path style="fill-rule:evenodd;clip-rule:evenodd;fill:#650001;" d="M2427.181,1754.962
					c-6.264-14.364-8.706-34.181-4.776-59.452l2.304-14.822C2426.369,1703.62,2427.216,1728.363,2427.181,1754.962
					 M2235.93,1499.423l-0.035,0.024c22.315-10.768,45.958-21.489,70.942-32.213c29.942,3.392,54.295,18.833,73.07,46.256
					c-260.247,83.531-387.007,184.587-380.283,303.213c30.986,119.591,13.311,199.591-53.083,240.006
					c-22.977,14.341-52.496,12.624-73.643-4.284c-3.826-3.071-7.228-6.508-10.172-10.24l1.248-91.001
					c-3.481,9.806-7.296,19.91-11.432,30.31c-7.343,20.964-3.195,43.804,10.184,60.691c93.013-4.422,124.253-91.824,93.689-262.229
					c-1.992-53.54,26.451-106.463,85.33-158.788h-0.012l0.091-0.07c5.841-5.177,11.969-10.355,18.397-15.509
					c42.554-38.261,43.677-59.865,3.322-64.813c-6.496,0.023-12.865-0.343-19.108-1.1h-0.023l0,0
					c-53.587-6.414-96.141-40.32-101.778-85.936c-6.942-56.151,44.583-108.685,115.124-117.412
					c70.515-8.729,133.313,29.667,140.254,85.821c1.924,15.533-0.631,30.768-6.827,44.902h0.012h-0.012
					c-2.44,5.567-5.452,10.951-8.971,16.129C2167.509,1514.543,2185.414,1519.974,2235.93,1499.423z M2265.323,1258.709
					c9.759,0,17.665,7.904,17.665,17.663c0,9.783-7.906,17.686-17.665,17.686c-9.771,0-17.686-7.904-17.686-17.686
					C2247.636,1266.613,2255.552,1258.709,2265.323,1258.709z M1851.97,1449.937c7.068,0,12.612,5.546,12.612,12.6
					c0,7.08-5.544,12.624-12.612,12.624c-7.057,0-12.612-5.544-12.612-12.624C1839.358,1455.483,1844.913,1449.937,1851.97,1449.937
					z M2428.809,1432.298c7.057,0,12.612,5.544,12.612,12.624c0,7.054-5.555,12.6-12.612,12.6c-7.068,0-12.612-5.546-12.612-12.6
					C2416.197,1437.842,2421.741,1432.298,2428.809,1432.298z M2098.826,1064.594c7.066,0,12.612,5.567,12.612,12.621
					c0,7.057-5.546,12.624-12.612,12.624c-7.057,0-12.612-5.567-12.612-12.624
					C2086.214,1070.161,2091.769,1064.594,2098.826,1064.594z M2496.336,1088.166c7.069,0,12.624,5.567,12.624,12.624
					s-5.555,12.6-12.624,12.6c-7.057,0-12.612-5.543-12.612-12.6S2489.279,1088.166,2496.336,1088.166z M1908.192,1641.351
					c9.771,0,17.675,7.904,17.675,17.686c0,9.759-7.904,17.665-17.675,17.665c-9.759,0-17.675-7.906-17.675-17.665
					C1890.517,1649.254,1898.432,1641.351,1908.192,1641.351z M2216.228,1171.788c18.292,14.777,18.338,45.064,0.101,67.63
					c-18.247,22.566-47.858,28.867-66.152,14.09c-18.294-14.777-18.327-45.064-0.091-67.63
					C2168.323,1163.312,2197.946,1156.988,2216.228,1171.788z M2743.649,1186.176c-155.112-130.404-388.382-174.163-699.832-131.297
					c145.925-49.92,298.918-56.451,458.956-19.657l6.517-1.192c138.148,30.997,268.369,91.16,378.475,183.74
					c49.908,41.97,4.031,97.917-91.812,126.118c-177.176,52.144-254.176,115.054-258.781,190.221
					c-3.059,49.761-16.427,100.3-12.143,155.973c0.185,96.589-74.755,117.78-97.825,64.925c40.919-2.634,59.726-28.36,56.428-77.183
					c4.741-109.419,21.822-191.505,51.203-246.26l-0.012,0.023l0.047-0.092c3.906-7.263,8.03-14.022,12.359-20.321
					c17.928-33.083,10.918-44.674-20.997-34.8c-56.644,22.772-117.367,6.874-138.732-37.78
					c-22.507-46.988,7.125-107.974,66.154-136.245c59.039-28.271,125.132-13.126,147.63,33.885
					c9.841,20.549,9.715,43.757,1.525,65.751c16.38,27.699,45.132,32.623,86.255,14.801
					C2750.647,1271.859,2768.826,1228.308,2743.649,1186.176z M1616.616,1750.218c6.585-17.869,13.677-36.06,21.283-54.525
					c10.63-10.606,22.005-20.642,34.101-30.057c-32.6,98.536,21.088,119.635,161.068,63.276
					c14.526,0.734,25.796,5.178,33.782,13.358l-0.171,12.624c-21.893-11.136-51.297-6.393-88.251,14.226
					C1675.414,1815.329,1621.473,1809.03,1616.616,1750.218z"/>
			</g>
			<g>
				<path style="fill-rule:evenodd;clip-rule:evenodd;fill:#FF8906;" d="M3126.394,1195.889
					c22.224,15.671,21.823,54.481-0.882,86.67c-22.702,32.21-59.107,45.589-81.342,29.942
					c-22.209-15.669-21.808-54.478,0.894-86.668C3067.768,1193.623,3104.173,1180.22,3126.394,1195.889z"/>
			</g>
			<g>
				<path style="fill:#650001;" d="M3065.962,1338.822c-11.914,0-23.306-3.291-33.13-10.208
					c-31.602-22.29-33.291-72.42-3.872-114.136c13.262-18.811,31.069-33.04,50.142-40.064c21.309-7.847,42.686-5.884,58.643,5.371
					c15.967,11.257,24.99,30.737,24.761,53.445c-0.21,20.329-7.627,41.88-20.889,60.686
					C3121.363,1322.648,3092.374,1338.819,3065.962,1338.822z M3104.722,1209.032c-4.595,0-9.033,1.272-12.007,2.366
					c-11.475,4.224-22.974,13.623-31.548,25.788c-17.539,24.871-17.046,51.167-5.64,59.214c11.411,8.027,36.353-0.33,53.882-25.193
					c8.574-12.161,13.564-26.147,13.691-38.379c0.054-5.618-0.918-15.796-8.062-20.835l0,0
					C3111.919,1209.794,3108.277,1209.032,3104.722,1209.032z"/>
			</g>
			<g>
				<path style="fill:#650001;" d="M2960.313,1321.486c-3.555,0-7.153-0.962-10.396-2.981
					c-21.646-13.474-43.599-38.967-67.119-77.93c-5.62-9.316-2.627-21.428,6.689-27.053c9.312-5.62,21.426-2.627,27.051,6.687
					c24.849,41.172,43.193,57.986,54.209,64.844c9.238,5.75,12.065,17.903,6.313,27.139
					C2973.326,1318.19,2966.895,1321.486,2960.313,1321.486z"/>
			</g>
			<g>
				<path style="fill-rule:evenodd;clip-rule:evenodd;fill:#EB2D04;" d="M2568.297,1203.22
					c22.498,46.99-7.125,107.976-66.164,136.248c-59.039,28.269-125.135,13.102-147.633-33.885
					c-22.498-46.964,7.125-107.974,66.164-136.245C2479.703,1141.066,2545.799,1156.232,2568.297,1203.22z"/>
			</g>
			<g>
				<path style="fill:#650001;" d="M2441.353,1373.417c-10.586,0-21.035-1.145-31.147-3.467
					c-33.857-7.769-59.951-27.607-73.477-55.859c-13.525-28.237-12.622-61.001,2.554-92.248
					c14.434-29.729,40.317-54.685,72.871-70.276c32.559-15.593,68.232-20.105,100.435-12.715
					c33.857,7.768,59.951,27.607,73.481,55.857l0,0c27.148,56.702-6.685,129.612-75.425,162.529
					C2488.306,1367.933,2464.498,1373.417,2441.353,1373.417z M2481.392,1174.781c-17.261,0-35.205,4.18-52.217,12.327
					c-24.551,11.758-43.887,30.205-54.443,51.948c-9.819,20.222-10.693,40.825-2.461,58.013
					c8.237,17.202,24.839,29.443,46.753,34.473c23.55,5.405,50.049,1.909,74.6-9.846c49.141-23.533,74.668-72.864,56.899-109.966
					c-8.232-17.2-24.834-29.441-46.748-34.47C2496.543,1175.602,2489.034,1174.781,2481.392,1174.781z"/>
			</g>
			<g>
				<path style="fill-rule:evenodd;clip-rule:evenodd;fill:#EB2D04;" d="M2170.636,1389.388
					c6.393,51.708-41.078,100.117-106.038,108.157c-64.974,8.042-122.822-27.354-129.212-79.039
					c-6.393-51.708,41.076-100.117,106.05-108.159C2106.396,1302.307,2164.244,1337.703,2170.636,1389.388z"/>
			</g>
			<g>
				<path style="fill:#650001;" d="M2046.163,1518.392c-28.462,0-55.728-7.278-78.423-21.162
					c-29.629-18.128-48.066-45.225-51.909-76.304c-7.71-62.395,47.549-120.771,123.184-130.134
					c35.82-4.426,71.079,2.625,99.268,19.871c29.629,18.13,48.066,45.227,51.909,76.306c0,0.002,0,0.002,0,0.002
					c7.71,62.393-47.544,120.769-123.169,130.129C2060.03,1517.965,2053.062,1518.392,2046.163,1518.392z M2059.937,1328.902
					c-5.303,0-10.679,0.332-16.079,1.001c-54.077,6.692-93.965,45.357-88.916,86.187c2.339,18.914,14.189,35.794,33.364,47.525
					c20.615,12.612,46.841,17.72,73.872,14.375c54.067-6.692,93.95-45.354,88.901-86.184v0.002
					c-2.339-18.918-14.189-35.796-33.364-47.529C2101.221,1334.188,2081.138,1328.902,2059.937,1328.902z"/>
			</g>
			<g>
				<path style="fill:#650001;" d="M2427.374,1540.135c-5.186,0-10.361-2.034-14.229-6.069
					c-9.941-10.373-35.435-23.279-100.41-25.859c-10.874-0.43-19.341-9.595-18.906-20.469c0.425-10.874,9.478-19.48,20.469-18.906
					c63.589,2.525,105.229,14.942,127.295,37.964c7.529,7.856,7.266,20.33-0.591,27.861
					C2437.183,1538.317,2432.276,1540.135,2427.374,1540.135z"/>
			</g>
			<g>
				<path style="fill:#650001;" d="M2546.104,1516.176c-1.372,0-2.769-0.144-4.165-0.444c-10.635-2.288-17.407-12.766-15.117-23.406
					c9.917-46.118,39.731-96.357,91.147-153.589c7.28-8.098,19.731-8.76,27.827-1.489c8.096,7.273,8.76,19.731,1.489,27.827
					c-46.05,51.26-73.618,96.863-81.938,135.537C2563.36,1509.855,2555.191,1516.176,2546.104,1516.176z"/>
			</g>
			<g>
				<path style="fill-rule:evenodd;clip-rule:evenodd;fill:#EB2D04;" d="M2196.194,1146.198c18.292,14.798,18.327,45.085,0.08,67.63
					c-18.238,22.566-47.849,28.888-66.143,14.111c-18.294-14.775-18.327-45.064-0.08-67.63
					C2148.289,1137.744,2177.9,1131.421,2196.194,1146.198z"/>
			</g>
			<g>
				<path style="fill:#650001;" d="M2153.497,1255.531c-12.959,0-25.488-3.977-35.747-12.263
					c-13.364-10.794-21.045-27.632-21.064-46.199c-0.024-17.278,6.387-34.734,18.042-49.15
					c25.034-30.974,67.134-38.623,93.848-17.048c0.005,0.003,0.005,0.007,0.01,0.01c13.359,10.806,21.03,27.646,21.055,46.204
					c0.02,17.283-6.387,34.734-18.047,49.141C2196.172,1245.302,2174.278,1255.531,2153.497,1255.531z M2172.647,1157.872
					c-9.033,0-19.644,5.381-27.271,14.822c-5.913,7.309-9.297,16.174-9.287,24.329c0.005,3.889,0.845,11.086,6.421,15.588
					c9.648,7.793,27.251,2.678,38.438-11.167c5.913-7.305,9.292-16.162,9.282-24.312c-0.005-3.892-0.845-11.091-6.426-15.613
					C2180.738,1159.044,2176.861,1157.872,2172.647,1157.872z"/>
			</g>
			<g>
				<path style="fill-rule:evenodd;clip-rule:evenodd;fill:#99CC33;" d="M1874.226,1543.938
					c15.819,12.807,15.854,38.993,0.08,58.511c-15.784,19.519-41.409,24.994-57.228,12.187
					c-15.819-12.783-15.854-38.969-0.068-58.488C1832.782,1536.607,1858.407,1531.153,1874.226,1543.938z"/>
			</g>
			<g>
				<path style="fill:#650001;" d="M1837.305,1632.836c-10.176,0-19.619-3.223-27.31-9.448c-10.337-8.352-16.04-20.945-16.06-35.454
					c-0.015-13.621,5.068-27.424,14.321-38.865c9.238-11.443,21.67-19.316,34.995-22.158c14.194-3.03,27.705-0.088,38.052,8.274
					c0,0,0,0.002,0.005,0.005c20.605,16.68,21.396,50.029,1.753,74.336c-9.253,11.445-21.689,19.311-35.01,22.151
					C1844.41,1632.452,1840.811,1632.836,1837.305,1632.836z M1853.892,1548.285c-1.919,0-3.906,0.212-5.942,0.647
					c-8.291,1.768-16.167,6.843-22.178,14.287c-6.021,7.449-9.331,16.211-9.321,24.688c0.01,7.583,2.749,13.967,7.705,17.974
					c4.971,4.021,11.782,5.359,19.204,3.774c8.291-1.768,16.172-6.841,22.192-14.285c11.841-14.653,12.554-33.801,1.592-42.678
					C1863.545,1549.784,1858.97,1548.285,1853.892,1548.285z"/>
			</g>
			<g>
				<path style="fill-rule:evenodd;clip-rule:evenodd;fill:#99CC33;" d="M2713.649,1239.923c3.184,4.673-1.605,13.471-10.7,19.657
					c-9.095,6.184-19.026,7.423-22.2,2.749c-3.183-4.676,1.605-13.473,10.688-19.657
					C2700.533,1236.486,2710.475,1235.25,2713.649,1239.923z"/>
			</g>
			<g>
				<path style="fill:#650001;" d="M2687.535,1276.42c-6.934,0-12.686-2.737-16.099-7.764c-7.002-10.286-1.255-25.129,13.662-35.291
					c5.859-3.982,12.349-6.577,18.281-7.312c8.423-1.067,15.596,1.69,19.575,7.532l0,0c3.975,5.837,3.916,13.484-0.161,20.979
					c-2.861,5.256-7.661,10.344-13.511,14.324c-5.854,3.979-12.339,6.575-18.267,7.31
					C2689.825,1276.346,2688.663,1276.42,2687.535,1276.42z M2704.346,1246.261h0.049H2704.346z"/>
			</g>
			<g>
				<path style="fill-rule:evenodd;clip-rule:evenodd;fill:#99CC33;" d="M2340.95,1110.343c3.172,4.652-1.616,13.473-10.7,19.657
					c-9.095,6.186-19.026,7.423-22.2,2.75c-3.183-4.673,1.605-13.471,10.688-19.657
					C2327.833,1106.908,2337.764,1105.669,2340.95,1110.343z"/>
			</g>
			<g>
				<path style="fill:#650001;" d="M2314.839,1146.84c-6.934,0-12.686-2.739-16.104-7.769c-3.965-5.82-3.906-13.467,0.166-20.962
					c2.856-5.254,7.651-10.339,13.496-14.321c14.941-10.154,30.854-10.059,37.856,0.217c2.588,3.796,3.501,8.594,2.573,13.506
					c-1.465,7.717-7.534,15.864-16.24,21.795c-5.859,3.982-12.344,6.577-18.271,7.314
					C2317.129,1146.766,2315.967,1146.84,2314.839,1146.84z"/>
			</g>
			<g>
				<path style="fill-rule:evenodd;clip-rule:evenodd;fill:#99CC33;" d="M2293.387,1400.132c3.186,4.673-1.614,13.471-10.698,19.657
					c-9.084,6.186-19.028,7.423-22.212,2.75c-3.174-4.652,1.614-13.449,10.709-19.657
					C2280.271,1396.695,2290.204,1395.48,2293.387,1400.132z"/>
			</g>
			<g>
				<path style="fill:#650001;" d="M2267.286,1436.654c-6.787,0-12.578-2.595-16.113-7.778c-3.97-5.823-3.911-13.467,0.171-20.967
					c2.861-5.252,7.651-10.339,13.501-14.326c14.893-10.154,30.811-10.071,37.837,0.193c0.005,0.007,0.01,0.012,0.015,0.019
					c3.975,5.837,3.916,13.486-0.171,20.984c-2.856,5.249-7.651,10.334-13.496,14.314
					C2281.622,1434.137,2273.97,1436.654,2267.286,1436.654z M2286.871,1408.578h0.049H2286.871z"/>
			</g>
			<g>
				<path style="fill-rule:evenodd;clip-rule:evenodd;fill:#99CC33;" d="M2035.182,1242.327c3.172,4.673-1.616,13.471-10.7,19.657
					c-9.095,6.186-19.026,7.423-22.212,2.75c-3.184-4.673,1.605-13.471,10.7-19.657
					C2022.066,1238.891,2031.996,1237.654,2035.182,1242.327z"/>
			</g>
			<g>
				<path style="fill:#650001;" d="M2009.073,1278.844c-6.787,0-12.578-2.593-16.108-7.771c-3.975-5.84-3.916-13.486,0.161-20.981
					c2.861-5.256,7.661-10.344,13.511-14.324c14.932-10.149,30.845-10.059,37.852,0.222c0,0.003,0.005,0.007,0.005,0.012
					c6.992,10.288,1.24,25.129-13.672,35.286C2023.409,1276.329,2015.757,1278.844,2009.073,1278.844z M2028.663,1250.763h0.049
					H2028.663z"/>
			</g>
			<g>
				<path style="fill-rule:evenodd;clip-rule:evenodd;fill:#EB2D04;" d="M2035.032,1772.991
					c81.48-31.042,159.557-62.382,234.185-94.043c-13.745,47.309-48.489,85.682-94.205,104.032
					C2129.296,1801.333,2077.679,1797.666,2035.032,1772.991z"/>
			</g>
			<g>
				<path style="fill:#650001;" d="M2115.108,1814.347c-31.128,0-62.061-8.167-89.946-24.299
					c-6.577-3.806-10.381-11.057-9.771-18.635c0.605-7.576,5.522-14.128,12.622-16.833c81.191-30.93,159.756-62.481,233.511-93.772
					c7.017-2.966,15.098-1.641,20.776,3.406c5.688,5.051,7.964,12.927,5.84,20.232c-15.542,53.494-54.102,96.074-105.791,116.821
					C2160.562,1810.011,2137.784,1814.347,2115.108,1814.347z M2090.577,1772.723c25.552,4.59,52.153,1.978,77.095-8.03
					c24.907-9.998,45.918-26.489,61.201-47.471C2184.126,1735.763,2137.881,1754.32,2090.577,1772.723z"/>
			</g>
			<g style="opacity:0.3;">
				<path style="fill-rule:evenodd;clip-rule:evenodd;fill:#650001;" d="M2152.664,1388.447
					c-19.188,21.513-48.787,37.207-83.324,41.491c-45.43,5.614-87.378-9.989-110.688-37.573c-0.655-0.779-1.295-1.558-1.914-2.36
					c-4.812-6.116-8.739-12.76-11.615-19.885c-3.711,6.782-6.496,13.907-8.225,21.238c-2.074,8.797-2.646,17.914-1.511,27.124
					c1.006,8.133,3.275,15.854,6.644,23.047c2.337,4.995,5.189,9.738,8.5,14.181c22.463,30.219,66.347,47.722,114.069,41.834
					c38.42-4.765,70.722-23.643,89.382-48.958c12.889-17.503,19.268-38.075,16.645-59.175c-0.823-6.714-2.52-13.152-4.983-19.247
					C2162.113,1376.604,2157.762,1382.72,2152.664,1388.447"/>
			</g>
			<g style="opacity:0.3;">
				<path style="fill-rule:evenodd;clip-rule:evenodd;fill:#650001;" d="M2505.019,1276.762
					c-42.544,20.368-88.741,18.191-119.671-2.201c-11.981-7.904-21.672-18.533-27.95-31.682c-1.089-2.269-2.062-4.561-2.897-6.874
					c-9.668,23.094-10.402,47.837,0.012,69.577c7.101,14.869,18.58,26.531,32.818,34.664c0.458,0.274,0.929,0.526,1.398,0.779
					c21.843,11.981,49.908,15.76,78.616,10.078c11.615-2.313,23.333-6.163,34.789-11.636c56.186-26.92,85.741-83.44,69.049-129.35
					C2559.969,1236.943,2536.739,1261.571,2505.019,1276.762"/>
			</g>
			<g style="opacity:0.3;">
				<path style="fill-rule:evenodd;clip-rule:evenodd;fill:#650001;" d="M2193.135,1172.201
					c-12.978,16.058-31.732,23.894-48.065,21.717c-6.599-0.87-12.807-3.366-18.078-7.627c-2.85-2.315-5.257-4.974-7.205-7.95
					c-6.827,18.716-3.366,38.512,10.344,49.599c2.086,1.673,4.296,3.094,6.644,4.216c18.226,8.912,43.347,1.696,59.51-18.303
					c11.707-14.503,15.887-32.166,12.53-46.875c-1.065-4.629-2.862-8.98-5.405-12.83c-1.18,3.23-2.658,6.44-4.458,9.555
					C2197.292,1166.634,2195.344,1169.475,2193.135,1172.201"/>
			</g>
			<g style="opacity:0.3;">
				<path style="fill-rule:evenodd;clip-rule:evenodd;fill:#650001;" d="M1824.1,2436.648
					c-69.303,6.393-130.781-12.211-157.988-44.032c-10.665,13.79-16.026,28.865-14.615,44.191
					c4.697,50.793,81.971,85.18,172.603,76.84c90.621-8.338,160.313-56.289,155.639-107.08c-1.1-11.96-6.231-23.026-14.606-32.809
					C1940.449,2405.697,1887.378,2430.83,1824.1,2436.648"/>
			</g>
			<g style="opacity:0.3;">
				<path style="fill-rule:evenodd;clip-rule:evenodd;fill:#650001;" d="M2184.405,2175.84c-3.219,0.755-6.426,1.375-9.588,1.879
					c-16.368,2.587-31.8,2.015-44.48-1.26c-8.396-2.154-15.568-5.476-20.985-9.83c-2.566,3.118-4.661,6.325-6.219,9.576
					c-3.003,6.254-4,12.671-2.566,18.833c5.44,23.413,43.677,34.502,85.408,24.788c28.867-6.712,51.834-21.628,61.467-37.916
					c4.296-7.263,5.935-14.777,4.263-21.993c-1.41-6.072-5.042-11.317-10.355-15.58
					C2230.03,2158.039,2209.434,2170.022,2184.405,2175.84"/>
			</g>
			<g style="opacity:0.3;">
				<path style="fill-rule:evenodd;clip-rule:evenodd;fill:#650001;" d="M2719.125,2037.922
					c-61.101,5.635-114.871-12.255-134.676-41.834c-6.564,10.057-9.715,20.825-8.718,31.753
					c3.871,41.995,67.721,70.403,142.603,63.508c74.893-6.897,132.478-46.509,128.604-88.479
					c-0.711-7.721-3.458-14.984-7.927-21.651C2820.419,2009.834,2774.497,2032.813,2719.125,2037.922"/>
			</g>
			<g style="opacity:0.3;">
				<path style="fill-rule:evenodd;clip-rule:evenodd;fill:#650001;" d="M2415.899,1920.647
					c-43.288,5.612-82.443-3.965-101.893-22.543c-7.845,9.942-11.671,20.755-10.275,31.591c4.319,33.06,55.581,53.61,114.529,45.958
					c58.924-7.674,103.232-40.665,98.958-73.701c-1.145-8.774-5.6-16.678-12.633-23.392
					C2488.489,1898.904,2455.5,1915.493,2415.899,1920.647"/>
			</g>
			<g style="opacity:0.3;">
				<path style="fill-rule:evenodd;clip-rule:evenodd;fill:#650001;" d="M2720.603,1831.23c-29.074,9.712-57.378,8.682-73.908-1.056
					c-6.313,9.6-8.579,19.521-5.602,28.433c7.629,22.772,46.737,30.195,87.367,16.609c40.621-13.609,67.379-43.072,59.773-65.845
					c-2.165-6.482-6.897-11.73-13.471-15.601C2764.944,1808.755,2745.345,1822.934,2720.603,1831.23"/>
			</g>
			<g style="opacity:0.3;">
				<path style="fill-rule:evenodd;clip-rule:evenodd;fill:#650001;" d="M1604.68,2027.659
					c-56.806,5.224-107.265-9.874-130.003-35.786c-8.546,11.249-12.818,23.53-11.674,35.969
					c3.861,41.995,67.721,70.403,142.603,63.508c74.881-6.897,132.466-46.509,128.595-88.479
					c-0.929-10.128-5.361-19.474-12.589-27.699C1701.393,2001.794,1657.315,2022.802,1604.68,2027.659"/>
			</g>
			<g style="opacity:0.3;">
				<path style="fill-rule:evenodd;clip-rule:evenodd;fill:#650001;" d="M1332.807,1852.353
					c-7.674,26.298-39.633,53.814-82.944,68.317c-39.258,13.126-77.483,12.119-100.657-0.368
					c-2.313,7.927-2.428,15.739,0.024,23.049c10.585,31.614,64.848,41.901,121.217,23.047c23.746-7.95,44.067-19.817,58.856-33.243
					c20.321-18.442,30.183-39.842,24.067-58.122C1350.151,1865.455,1342.911,1857.805,1332.807,1852.353"/>
			</g>
			<g style="opacity:0.3;">
				<path style="fill-rule:evenodd;clip-rule:evenodd;fill:#650001;" d="M2041.263,2266.266c20.825,0,37.724,16.884,37.724,37.709
					c0,20.849-16.898,37.733-37.724,37.733c-20.835,0-37.733-16.884-37.733-37.733
					C2003.53,2283.15,2020.428,2266.266,2041.263,2266.266"/>
			</g>
			<g style="opacity:0.3;">
				<path style="fill-rule:evenodd;clip-rule:evenodd;fill:#650001;" d="M1450.416,1709.989c20.825,0,37.721,16.884,37.721,37.733
					c0,20.825-16.896,37.709-37.721,37.709c-20.837,0-37.721-16.884-37.721-37.709
					C1412.694,1726.873,1429.578,1709.989,1450.416,1709.989"/>
			</g>
			<g style="opacity:0.3;">
				<path style="fill-rule:evenodd;clip-rule:evenodd;fill:#650001;" d="M2685.584,1653.402c20.825,0,37.721,16.907,37.721,37.733
					c0,20.849-16.896,37.733-37.721,37.733c-20.837,0-37.733-16.884-37.733-37.733
					C2647.851,1670.309,2664.747,1653.402,2685.584,1653.402"/>
			</g>
			<g style="opacity:0.3;">
				<path style="fill-rule:evenodd;clip-rule:evenodd;fill:#650001;" d="M1541.529,2420.245c10.423,0,18.89,8.453,18.89,18.878
					c0,10.447-8.467,18.899-18.89,18.899c-10.435,0-18.89-8.453-18.89-18.899
					C1522.639,2428.697,1531.094,2420.245,1541.529,2420.245"/>
			</g>
			<g style="opacity:0.3;">
				<path style="fill-rule:evenodd;clip-rule:evenodd;fill:#650001;" d="M2474.228,2044.705c10.423,0,18.878,8.453,18.878,18.899
					c0,10.426-8.455,18.878-18.878,18.878c-10.435,0-18.89-8.453-18.89-18.878
					C2455.338,2053.157,2463.792,2044.705,2474.228,2044.705"/>
			</g>
			<g style="opacity:0.3;">
				<path style="fill-rule:evenodd;clip-rule:evenodd;fill:#650001;" d="M2084.494,2041.566c10.435,0,18.89,8.453,18.89,18.878
					c0,10.447-8.455,18.899-18.89,18.899c-10.423,0-18.878-8.453-18.878-18.899
					C2065.616,2050.018,2074.071,2041.566,2084.494,2041.566"/>
			</g>
			<g style="opacity:0.3;">
				<path style="fill-rule:evenodd;clip-rule:evenodd;fill:#650001;" d="M1418.193,1897.004c10.435,0,18.888,8.453,18.888,18.878
					c0,10.423-8.453,18.878-18.888,18.878c-10.425,0-18.878-8.455-18.878-18.878
					C1399.315,1905.457,1407.768,1897.004,1418.193,1897.004"/>
			</g>
			<g style="opacity:0.3;">
				<path style="fill-rule:evenodd;clip-rule:evenodd;fill:#650001;" d="M2540.243,2293.003c10.423,0,18.89,8.452,18.89,18.876
					c0,10.449-8.467,18.901-18.89,18.901c-10.435,0-18.89-8.452-18.89-18.901
					C2521.354,2301.456,2529.809,2293.003,2540.243,2293.003"/>
			</g>
			<g style="opacity:0.3;">
				<path style="fill-rule:evenodd;clip-rule:evenodd;fill:#650001;" d="M1880.23,2208.144c10.435,0,18.89,8.453,18.89,18.878
					c0,10.447-8.455,18.899-18.89,18.899c-10.423,0-18.878-8.453-18.878-18.899
					C1861.352,2216.597,1869.807,2208.144,1880.23,2208.144"/>
			</g>
			<g style="opacity:0.3;">
				<path style="fill-rule:evenodd;clip-rule:evenodd;fill:#650001;" d="M2100.189,2461.161c7.824,0,14.17,6.325,14.17,14.158
					c0,7.814-6.346,14.16-14.17,14.16c-7.824,0-14.158-6.346-14.158-14.16C2086.031,2467.486,2092.365,2461.161,2100.189,2461.161"
					/>
			</g>
			<g style="opacity:0.3;">
				<path style="fill-rule:evenodd;clip-rule:evenodd;fill:#650001;" d="M2363.436,1775.215c7.824,0,14.158,6.346,14.158,14.158
					c0,7.836-6.334,14.181-14.158,14.181c-7.815,0-14.16-6.346-14.16-14.181C2349.276,1781.561,2355.622,1775.215,2363.436,1775.215
					"/>
			</g>
			<g style="opacity:0.3;">
				<path style="fill-rule:evenodd;clip-rule:evenodd;fill:#650001;" d="M1602.848,1605.497c7.824,0,14.17,6.346,14.17,14.158
					c0,7.835-6.346,14.181-14.17,14.181s-14.16-6.346-14.16-14.181C1588.688,1611.843,1595.024,1605.497,1602.848,1605.497"/>
			</g>
			<g style="opacity:0.5;">
				<path style="fill-rule:evenodd;clip-rule:evenodd;fill:#FFFFFF;" d="M1819.105,2368.239
					c32.785-2.818,59.989,2.198,60.759,11.225c0.779,9.004-25.156,18.604-57.953,21.445c-32.783,2.817-59.989-2.201-60.768-11.205
					C1760.364,2380.68,1786.311,2371.08,1819.105,2368.239"/>
			</g>
			<g style="opacity:0.5;">
				<path style="fill-rule:evenodd;clip-rule:evenodd;fill:#FFFFFF;" d="M1598.048,1968.643c25.944-2.245,47.469,1.717,48.076,8.865
					c0.619,7.125-19.908,14.73-45.843,16.976c-25.946,2.224-47.471-1.741-48.076-8.866
					C1551.586,1978.47,1572.113,1970.888,1598.048,1968.643"/>
			</g>
			<g style="opacity:0.5;">
				<path style="fill-rule:evenodd;clip-rule:evenodd;fill:#FFFFFF;" d="M1240.206,1880.76c15.303-5.635,28.957-6.782,30.503-2.59
					c1.548,4.216-9.586,12.211-24.891,17.825c-15.291,5.658-28.947,6.803-30.505,2.59
					C1213.767,1894.391,1224.913,1886.395,1240.206,1880.76"/>
			</g>
			<g style="opacity:0.5;">
				<path style="fill-rule:evenodd;clip-rule:evenodd;fill:#FFFFFF;" d="M2709.696,1969.95c32.797-2.82,60.001,2.198,60.78,11.225
					c0.779,9.004-25.177,18.625-57.962,21.442c-32.783,2.841-59.989-2.175-60.768-11.202S2676.913,1972.789,2709.696,1969.95"/>
			</g>
			<g style="opacity:0.5;">
				<path style="fill-rule:evenodd;clip-rule:evenodd;fill:#FFFFFF;" d="M2411.306,1883.761c16.105-2.496,29.714-0.938,30.413,3.505
					c0.687,4.422-11.81,10.057-27.917,12.556c-16.105,2.496-29.726,0.938-30.423-3.481
					C2382.692,1891.894,2395.189,1886.281,2411.306,1883.761"/>
			</g>
			<g style="opacity:0.5;">
				<path style="fill-rule:evenodd;clip-rule:evenodd;fill:#FFFFFF;" d="M2451.157,1205.557
					c31.352-9.987,59.006-11.087,61.753-2.473c2.738,8.636-20.445,23.711-51.799,33.7c-31.363,10.013-59.004,11.11-61.753,2.475
					C2396.608,1230.644,2419.794,1215.546,2451.157,1205.557"/>
			</g>
			<g style="opacity:0.5;">
				<path style="fill-rule:evenodd;clip-rule:evenodd;fill:#FFFFFF;" d="M2059.156,1351.38c32.82,2.405,58.891,11.66,58.227,20.71
					c-0.655,9.025-27.802,14.388-60.62,11.981c-32.818-2.405-58.891-11.662-58.225-20.687
					C1999.202,1354.334,2026.338,1348.973,2059.156,1351.38"/>
			</g>
		</g>
		<g style="opacity:0.2;">
			<ellipse style="fill-rule:evenodd;clip-rule:evenodd;fill:#650001;" cx="1990" cy="3439.362" rx="832.337" ry="150.638"/>
		</g>
	</g>
</g>
</svg>
