<?xml version="1.0" encoding="utf-8"?>
<!-- Generator: Adobe Illustrator 27.5.0, SVG Export Plug-In . SVG Version: 6.00 Build 0)  -->
<svg version="1.1" xmlns="http://www.w3.org/2000/svg" xmlns:xlink="http://www.w3.org/1999/xlink" x="0px" y="0px"
	 viewBox="0 0 500 500" style="enable-background:new 0 0 500 500;" xml:space="preserve">
<g id="BACKGROUND">
	<rect style="fill:#FFF1D1;" width="500" height="500"/>
</g>
<g id="OBJECTS">
	<g>
		<ellipse style="fill:#F0C997;" cx="250" cy="454.238" rx="159" ry="13.5"/>
		<g>
			<g>
				
					<path style="fill:#F08B2E;stroke:#4F2C26;stroke-width:3;stroke-linecap:round;stroke-linejoin:round;stroke-miterlimit:10;" d="
					M403.571,332.066c0,0,8.741-11.657,5.685-16.319c-3.056-4.662-16.72,5.819-16.72,5.819L403.571,332.066z"/>
				
					<path style="fill:#F08B2E;stroke:#4F2C26;stroke-width:3;stroke-linecap:round;stroke-linejoin:round;stroke-miterlimit:10;" d="
					M351.548,288.069c0,0,47.515-10.852,52.233,3.119c4.719,13.971-11.202,30.363-11.202,30.363s3.386,2.944,5.804,6.876
					c0,0,11.127-8.989,16.187-5.641c5.06,3.349-10.546,28.101-23.132,26.972c-12.586-1.128-22.072-17.189-20.115-27.036
					c1.832-9.22,13.483-15.5,11.906-20.296c-1.323-4.023-31.165,5.392-31.165,5.392L351.548,288.069z"/>
				<path style="fill:none;stroke:#4F2C26;stroke-width:3;stroke-linecap:round;stroke-linejoin:round;stroke-miterlimit:10;" d="
					M398.176,328.099c0.82,1.219,1.786,3.945,1.616,5.943"/>
			</g>
			<g>
				<defs>
					<path id="SVGID_1_" d="M277.456,388.043c0,0-20.242,60.475-18.645,61.134c20.329,5.503,41.813,6.698,62.989,3.218
						c-2.024-7.757-6.184-15.118-12.523-20.026c-6.339-4.908-14.976-7.095-22.652-4.783l8.402-41.485L277.456,388.043z"/>
				</defs>
				<use xlink:href="#SVGID_1_"  style="overflow:visible;fill:#F08B2E;"/>
				<clipPath id="SVGID_00000161633080718329386990000013992262147928338866_">
					<use xlink:href="#SVGID_1_"  style="overflow:visible;"/>
				</clipPath>
				<path style="clip-path:url(#SVGID_00000161633080718329386990000013992262147928338866_);fill:#BF5D24;" d="M309.994,391.636
					c-15.649,7.147-32.717,11.168-49.911,11.758c1.439-10.171,2.877-20.342,4.316-30.513c17.675-2.46,35.219-5.858,52.533-10.177
					C316.204,368.558,315.476,374.413,309.994,391.636z"/>
				
					<use xlink:href="#SVGID_1_"  style="overflow:visible;fill:none;stroke:#4F2C26;stroke-width:3;stroke-linecap:round;stroke-linejoin:round;stroke-miterlimit:10;"/>
			</g>
			<g>
				<defs>
					<path id="SVGID_00000163038485886007706540000005182120947813033124_" d="M227.541,386.841c0,0-19.502,42.399-20.229,42.832
						c-8.466-2.339-18.873-2.083-26.419,2.393s-13.126,12.111-14.465,20.916c21.195,3.641,46.197,2.102,59.38-1.931l20.559-62.72
						L227.541,386.841z"/>
				</defs>
				<use xlink:href="#SVGID_00000163038485886007706540000005182120947813033124_"  style="overflow:visible;fill:#F08B2E;"/>
				<clipPath id="SVGID_00000119798581976365029760000008340505265141140901_">
					<use xlink:href="#SVGID_00000163038485886007706540000005182120947813033124_"  style="overflow:visible;"/>
				</clipPath>
				<path style="clip-path:url(#SVGID_00000119798581976365029760000008340505265141140901_);fill:#BF5D24;" d="M250.39,403.083
					c-12.537,2.994-25.601,3.765-38.403,2.265c1.842-11.676,3.685-23.352,5.527-35.027c13.136,0.077,26.279-1.16,39.17-3.686
					C255.072,378.496,253.461,390.357,250.39,403.083z"/>
				
					<use xlink:href="#SVGID_00000163038485886007706540000005182120947813033124_"  style="overflow:visible;fill:none;stroke:#4F2C26;stroke-width:3;stroke-linecap:round;stroke-linejoin:round;stroke-miterlimit:10;"/>
			</g>
			<g>
				
					<path style="fill:#F08B2E;stroke:#4F2C26;stroke-width:3;stroke-linecap:round;stroke-linejoin:round;stroke-miterlimit:10;" d="
					M155.907,345.609c34.451-84.654,33.195-183.042-2.479-268.281c5.627-1.948,11.253-3.896,20.136-5.088
					c27.011,39.343,39.712,87.09,43.719,134.645s-0.212,95.375-4.429,142.911C196.079,348.651,179.51,347.428,155.907,345.609z"/>
				<g>
					<defs>
						<path id="SVGID_00000129191528446502413850000002049153828645483413_" d="M183.943,333.592
							c-10.029-16.796-10-39.11,0.073-55.879c2.542-4.232,5.698-8.197,7.15-12.916c1.451-4.718,0.671-10.618-3.412-13.393
							c-2.615-1.778-6.054-1.95-8.723-3.646c-6.096-3.874-5.083-13.342-1.18-19.419c3.903-6.077,9.889-10.894,12.373-17.676
							c6.208-16.952-10.333-34.84-7.617-52.687c0.836-5.492,6.591-16.56-2.501-21.74c-2.801-1.596-6.088-2.104-8.889-3.7
							c-5.028-2.864-6.373-9.637-5.498-15.357c0.874-5.72,3.393-11.116,4.006-16.87c0.613-5.754-1.429-12.5-6.8-14.653
							c-3.792-1.52-8.142-0.341-12.132-1.215c-8.845-1.938-12.465-13.951-8.304-21.994c4.16-8.042,13.415-12.226,22.38-13.5
							c15.815-2.246,31.781,2.733,46.369,9.241c50.469,22.515,91.436,64.19,116.498,113.444
							c25.063,49.254,34.66,105.684,32.57,164.124C302.245,357.119,236.831,357.863,183.943,333.592z"/>
					</defs>
					<use xlink:href="#SVGID_00000129191528446502413850000002049153828645483413_"  style="overflow:visible;fill:#FFD147;"/>
					<clipPath id="SVGID_00000100342063707959343030000000868927053891983510_">
						<use xlink:href="#SVGID_00000129191528446502413850000002049153828645483413_"  style="overflow:visible;"/>
					</clipPath>
					<path style="clip-path:url(#SVGID_00000100342063707959343030000000868927053891983510_);fill:#FAB23C;" d="M171.408,43.618
						c-9.472,6.164-13.452,19.53-8.895,29.871c3.654,8.291,11.929,14.488,13.309,23.442c1.317,8.539-4.084,17.645-0.726,25.606
						c2.498,5.922,9.086,9.112,12.356,14.646c4.875,8.252,1.094,18.713,1.695,28.278c0.997,15.864,14.314,30.608,9.985,45.902
						c-2.193,7.747-8.812,14.542-7.779,22.527c0.864,6.682,6.947,11.719,8.124,18.353c1.352,7.616-3.984,14.572-7.009,21.691
						c-6.49,15.277-1.986,33.783,8.628,46.545c10.614,12.762,26.438,20.322,42.638,23.94c16.2,3.618,32.957,3.646,51.321,2.381
						c27.779-6.976,53.321-22.603,72.177-44.162c-0.481,8.388-0.962,16.776-1.443,25.164
						c-61.001,36.775-141.236,39.245-204.384,6.292c1.661-46.277,3.318-92.699-0.826-138.82
						c-4.143-46.121-14.273-92.196-35.079-133.565C137.964,51.587,153.861,45.774,171.408,43.618z"/>
					
						<use xlink:href="#SVGID_00000129191528446502413850000002049153828645483413_"  style="overflow:visible;fill:none;stroke:#4F2C26;stroke-width:3;stroke-linecap:round;stroke-linejoin:round;stroke-miterlimit:10;"/>
				</g>
				<g>
					<g>
						<path style="fill:#FAB23C;" d="M183.207,64.701c-5.551,2.202-8.91,8.524-8.337,14.468c0.573,5.944,4.651,11.245,9.93,14.036
							c5.279,2.791,11.591,3.249,17.442,2.056c5.6-1.142,11.101-3.935,14.271-8.69c3.171-4.755,3.419-11.661-0.384-15.927
							c-2.67-2.994-6.728-4.259-10.58-5.378c-3.859-1.121-7.777-2.235-11.796-2.313C189.735,62.876,185.484,63.798,183.207,64.701z"
							/>
						<path style="fill:#FAB23C;" d="M200.894,130.567c-1.065-0.14-2.065,0.7-2.464,1.697c-0.399,0.997-0.334,2.112-0.239,3.182
							c0.094,1.07,0.208,2.172-0.105,3.199c-0.996,3.269-5.625,4.166-6.904,7.336c-0.94,2.33,0.478,5.163,2.717,6.302
							c2.239,1.139,5.005,0.822,7.267-0.272c4.081-1.973,6.799-6.475,6.646-11.005C207.658,136.475,204.935,131.097,200.894,130.567
							z"/>
						<path style="fill:#FAB23C;" d="M238.95,97.644c-4.294,0.937-6.702,5.771-6.75,10.165c-0.048,4.394,1.6,8.606,2.484,12.91
							c0.883,4.305,0.846,9.234-2.038,12.551c6.834,0.08,13.604-3.502,17.382-9.197c3.778-5.695,4.447-13.325,1.716-19.59
							c-1.261-2.893-3.295-5.569-6.131-6.953C242.776,96.147,239.072,96.31,238.95,97.644z"/>
						<path style="fill:#FAB23C;" d="M278.677,124.73c-6.939,4.578-9.645,14.159-7.225,22.112
							c2.42,7.953,9.265,14.108,17.087,16.923c6.517,2.345,14.538,2.298,19.579-2.452c5.365-5.056,5.521-13.882,2.357-20.541
							C305.318,129.917,292.037,123.638,278.677,124.73z"/>
						<path style="fill:#FAB23C;" d="M213.442,172.656c-7.676,2.568-11.45,12.472-8.405,19.97
							c3.045,7.499,11.591,11.95,19.663,11.359c8.072-0.591,15.41-5.594,20.079-12.205c2.701-3.824,4.662-8.439,4.153-13.092
							c-0.817-7.478-8.16-13.115-15.66-13.688C225.773,164.427,219.922,170.488,213.442,172.656z"/>
						<path style="fill:#FAB23C;" d="M266.517,201.799c-5.555,5.463-6.863,14.745-3.034,21.53
							c7.69,0.837,15.664-3.788,18.757-10.878s1.056-16.081-4.789-21.148C272.994,195.544,268.551,199.799,266.517,201.799z"/>
						<path style="fill:#FAB23C;" d="M314.406,188.254c-4.128,3.445-5.34,9.919-2.738,14.624s8.73,7.12,13.842,5.454
							c1.14-0.371,2.257-0.947,3-1.889c0.742-0.942,1.033-2.306,0.478-3.368c-0.575-1.1-1.838-1.609-2.963-2.133
							C320.377,198.31,315.994,193.104,314.406,188.254z"/>
						<path style="fill:#FAB23C;" d="M195.431,313.57c-1.596,0.153-3.218,0.847-4.115,2.176c-0.897,1.329-0.833,3.346,0.403,4.368
							c1.837,1.52,4.705,0.144,6.951,0.945c3.311,1.181,3.634,6.274,6.83,7.737c2.289,1.048,5.199-0.496,6.118-2.839
							c0.919-2.343,0.145-5.099-1.422-7.068c-1.568-1.969-3.816-3.274-6.101-4.33C201.393,313.31,198.41,313.285,195.431,313.57z"/>
					</g>
					<g>
						<g>
							<g>
								<defs>
									<path id="SVGID_00000037679485675807730140000013374650493143712938_" d="M216.849,80.395
										c-3.888,8.524-15.435,12.99-25.242,9.753c-10.677-3.524-16.494-9.936-14.465-18.82c2.029-8.884,12.22-12.868,23.527-11.552
										C211.836,61.076,220.636,72.093,216.849,80.395z"/>
								</defs>
								<use xlink:href="#SVGID_00000037679485675807730140000013374650493143712938_"  style="overflow:visible;fill:#FA4741;"/>
								<clipPath id="SVGID_00000111896850298993445320000012423450915648867772_">
									<use xlink:href="#SVGID_00000037679485675807730140000013374650493143712938_"  style="overflow:visible;"/>
								</clipPath>
								<path style="opacity:0.5216;clip-path:url(#SVGID_00000111896850298993445320000012423450915648867772_);fill:#FF6A59;" d="
									M182.263,59.269c-2.593,4.276-5.285,9.257-3.776,14.025c1.176,3.715,4.626,6.208,8.057,8.054
									c4.877,2.624,10.309,4.525,15.843,4.303c5.534-0.222,11.169-2.851,14.008-7.607c3.383-5.668,2.027-13.446-2.426-18.318
									c-4.453-4.872-11.447-6.959-18.018-6.346C189.378,53.993,183.513,57.207,182.263,59.269z"/>
								
									<use xlink:href="#SVGID_00000037679485675807730140000013374650493143712938_"  style="overflow:visible;fill:none;stroke:#4F2C26;stroke-width:3;stroke-linecap:round;stroke-linejoin:round;stroke-miterlimit:10;"/>
							</g>
							<g>
								
									<path style="fill:none;stroke:#CF3241;stroke-width:3;stroke-linecap:round;stroke-linejoin:round;stroke-miterlimit:10;" d="
									M187.738,73.539c2.805-0.044,5.59,1.406,7.163,3.729"/>
								
									<path style="fill:none;stroke:#CF3241;stroke-width:3;stroke-linecap:round;stroke-linejoin:round;stroke-miterlimit:10;" d="
									M200.003,69.544c3.599-0.479,7.378,0.596,10.186,2.898"/>
							</g>
						</g>
						<g>
							<g>
								<defs>
									<path id="SVGID_00000029034177797111202940000000364342528127292297_" d="M278.432,123.982
										c8.836-5.899,22.362-3.494,29.56,5.266c7.837,9.537,9.366,19.026,2.049,26.343c-7.317,7.317-19.281,5.236-29.053-2.555
										C271.335,145.34,269.826,129.727,278.432,123.982z"/>
								</defs>
								<use xlink:href="#SVGID_00000029034177797111202940000000364342528127292297_"  style="overflow:visible;fill:#FA4741;"/>
								<clipPath id="SVGID_00000039854003379828353940000011427960487028620440_">
									<use xlink:href="#SVGID_00000029034177797111202940000000364342528127292297_"  style="overflow:visible;"/>
								</clipPath>
								<path style="opacity:0.5216;clip-path:url(#SVGID_00000039854003379828353940000011427960487028620440_);fill:#FF6A59;" d="
									M284.022,117.143c-3.326,2.464-6.674,5.231-8.283,9.046c-1.608,3.814-0.854,8.935,2.703,11.051
									c1.249,0.743,2.739,1.072,3.868,1.988c1.847,1.497,2.242,4.095,3.135,6.298c2.836,6.989,12.049,10.244,18.969,7.243
									c6.92-3.001,10.849-11.237,9.608-18.677c-1.241-7.44-7.099-13.7-14.193-16.261
									C292.734,115.27,284.956,116.451,284.022,117.143z"/>
								
									<use xlink:href="#SVGID_00000029034177797111202940000000364342528127292297_"  style="overflow:visible;fill:none;stroke:#4F2C26;stroke-width:3;stroke-linecap:round;stroke-linejoin:round;stroke-miterlimit:10;"/>
							</g>
							<g>
								
									<path style="fill:none;stroke:#CF3241;stroke-width:3;stroke-linecap:round;stroke-linejoin:round;stroke-miterlimit:10;" d="
									M305.628,138.182c-4.191-1.725-9.38-0.655-12.547,2.586"/>
								
									<path style="fill:none;stroke:#CF3241;stroke-width:3;stroke-linecap:round;stroke-linejoin:round;stroke-miterlimit:10;" d="
									M290.392,133.206c-2.232-1.38-4.823-2.172-7.445-2.274"/>
								
									<path style="fill:none;stroke:#CF3241;stroke-width:3;stroke-linecap:round;stroke-linejoin:round;stroke-miterlimit:10;" d="
									M287.273,145.327c3.116,0.154,6.183,1.204,8.738,2.994"/>
							</g>
						</g>
						<g>
							<g>
								<defs>
									<path id="SVGID_00000166646221425216815010000013126267803176343457_" d="M205.578,188.168
										c-2.318-10.627,5.032-22.619,16.072-26.204c12.02-3.903,21.636-1.812,25.873,7.898c4.238,9.71-2.219,20.334-13.3,26.735
										C223.281,202.919,207.836,198.519,205.578,188.168z"/>
								</defs>
								<use xlink:href="#SVGID_00000166646221425216815010000013126267803176343457_"  style="overflow:visible;fill:#FA4741;"/>
								<clipPath id="SVGID_00000022536276811572148180000003160294958195717268_">
									<use xlink:href="#SVGID_00000166646221425216815010000013126267803176343457_"  style="overflow:visible;"/>
								</clipPath>
								<path style="opacity:0.5216;clip-path:url(#SVGID_00000022536276811572148180000003160294958195717268_);fill:#FF6A59;" d="
									M213.013,159.926c-7.344,4.469-11.896,13.166-11.384,21.747c0.233,3.895,1.497,7.825,4.106,10.728
									c2.608,2.903,6.674,4.621,10.503,3.867c3.756-0.74,6.817-3.644,10.58-4.348c3.41-0.638,7.482,0.447,10.002-1.938
									c2.12-2.006,1.917-5.421,3.21-8.038c1.078-2.183,3.143-3.696,4.572-5.666c3.65-5.029,2.359-12.621-2.06-16.99
									c-4.419-4.369-11.223-5.729-17.328-4.574C219.107,155.869,213.793,159.452,213.013,159.926z"/>
								
									<use xlink:href="#SVGID_00000166646221425216815010000013126267803176343457_"  style="overflow:visible;fill:none;stroke:#4F2C26;stroke-width:3;stroke-linecap:round;stroke-linejoin:round;stroke-miterlimit:10;"/>
							</g>
							<g>
								
									<path style="fill:none;stroke:#CF3241;stroke-width:3;stroke-linecap:round;stroke-linejoin:round;stroke-miterlimit:10;" d="
									M233.208,166.006c-2.425,1.909-4.306,4.502-5.37,7.399"/>
								
									<path style="fill:none;stroke:#CF3241;stroke-width:3;stroke-linecap:round;stroke-linejoin:round;stroke-miterlimit:10;" d="
									M219.002,176.167c-2.68,0.392-5.235,1.605-7.232,3.434"/>
								
									<path style="fill:none;stroke:#CF3241;stroke-width:3;stroke-linecap:round;stroke-linejoin:round;stroke-miterlimit:10;" d="
									M233.147,179.339c-4.051,1.55-7.143,5.372-7.812,9.658"/>
							</g>
						</g>
						<g>
							<g>
								<defs>
									<path id="SVGID_00000159451582312585105490000008234466480381870478_" d="M235.103,348.467
										c0.189-10.622,9.873-20.366,21.174-21.289c12.303-1.004,20.972,3.147,22.814,13.33
										c1.842,10.183-6.686,18.827-18.658,22.417C248.609,366.471,234.919,358.814,235.103,348.467z"/>
								</defs>
								<use xlink:href="#SVGID_00000159451582312585105490000008234466480381870478_"  style="overflow:visible;fill:#FA4741;"/>
								<clipPath id="SVGID_00000115483538408139882570000000710931667158637965_">
									<use xlink:href="#SVGID_00000159451582312585105490000008234466480381870478_"  style="overflow:visible;"/>
								</clipPath>
								<path style="opacity:0.5216;clip-path:url(#SVGID_00000115483538408139882570000000710931667158637965_);fill:#FF6A59;" d="
									M270.905,324.779c4.235,3.606,3.626,10.71,0.213,15.102c-3.413,4.392-8.762,6.737-13.882,8.91
									c-5.957,2.529-12.849,5.051-18.657,2.196c-6.183-3.039-8.263-11.602-5.425-17.879c2.838-6.278,9.442-10.23,16.213-11.499
									S264.435,319.269,270.905,324.779z"/>
								
									<use xlink:href="#SVGID_00000159451582312585105490000008234466480381870478_"  style="overflow:visible;fill:none;stroke:#4F2C26;stroke-width:3;stroke-linecap:round;stroke-linejoin:round;stroke-miterlimit:10;"/>
							</g>
							<g>
								
									<path style="fill:none;stroke:#CF3241;stroke-width:3;stroke-linecap:round;stroke-linejoin:round;stroke-miterlimit:10;" d="
									M247.139,338.298c2.916-1.068,6.259-0.915,9.065,0.417"/>
								
									<path style="fill:none;stroke:#CF3241;stroke-width:3;stroke-linecap:round;stroke-linejoin:round;stroke-miterlimit:10;" d="
									M262.64,339.657c1.343-2.561,3.974-4.404,6.841-4.788"/>
							</g>
						</g>
						<g>
							
								<path style="fill:#8CBF39;stroke:#4F2C26;stroke-width:3;stroke-linecap:round;stroke-linejoin:round;stroke-miterlimit:10;" d="
								M265.235,220.031c-3.006-3.081-4.214-7.802-3.059-11.948c1.133-4.066,4.221-7.237,7.036-10.382
								c2.815-3.145,5.585-6.75,5.821-10.964c6.014,4.658,8.807,13.095,6.759,20.421
								C279.743,214.485,272.981,220.251,265.235,220.031z"/>
							
								<path style="fill:none;stroke:#4F2C26;stroke-width:3;stroke-linecap:round;stroke-linejoin:round;stroke-miterlimit:10;" d="
								M274.704,200.984c-2.651,8.895-7.757,17.046-14.605,23.311"/>
						</g>
						<g>
							
								<path style="fill:#8CBF39;stroke:#4F2C26;stroke-width:3;stroke-linecap:round;stroke-linejoin:round;stroke-miterlimit:10;" d="
								M241.489,94.477c-3.877,1.888-6.679,5.827-7.192,10.108c-0.487,4.063,0.955,8.072,2.141,11.989
								c1.186,3.916,2.122,8.2,0.676,12.028c5.094-1.568,9.804-4.623,12.893-8.967c3.089-4.343,4.429-10.011,3.114-15.175
								C251.805,99.296,247.681,94.822,241.489,94.477z"/>
							
								<path style="fill:none;stroke:#4F2C26;stroke-width:3;stroke-linecap:round;stroke-linejoin:round;stroke-miterlimit:10;" d="
								M243.851,111.942c0.499-9.079-1.428-18.279-5.527-26.395"/>
						</g>
						
							<path style="fill:#8CBF39;stroke:#4F2C26;stroke-width:3;stroke-linecap:round;stroke-linejoin:round;stroke-miterlimit:10;" d="
							M211.015,323.259c2.127-3.824-2.266-8.789-6.191-10.724c-4.069-2.006-12.572-2.191-12.457,3.209
							c0.026,1.219,0.3,1.574,1.469,1.919c2.55,0.752,5.373-0.763,7.764,0.409c2.785,1.365,2.722,5.597,5.402,7.158
							C208.136,325.891,210.096,324.911,211.015,323.259z"/>
						
							<path style="fill:#8CBF39;stroke:#4F2C26;stroke-width:3;stroke-linecap:round;stroke-linejoin:round;stroke-miterlimit:10;" d="
							M202.196,127.9c0.974-0.338,2.08-0.188,2.86,0.485c3.73,3.218,5.227,8.811,3.393,13.4c-1.695,4.243-6.089,7.255-10.686,7.633
							c-1.507,0.124-2.877-0.874-3.179-2.356l0,0c-0.301-1.476,0.548-2.969,1.992-3.398c2.362-0.701,4.393-2.578,5.045-4.924
							c0.577-2.076,0.03-4.358-1.268-6.069c-1.176-1.55-0.601-3.798,1.201-4.53C201.76,128.058,201.973,127.977,202.196,127.9z"/>
						
							<path style="fill:#8CBF39;stroke:#4F2C26;stroke-width:3;stroke-linecap:round;stroke-linejoin:round;stroke-miterlimit:10;" d="
							M327.815,203.482c-0.365,0.965-1.189,1.717-2.206,1.884c-4.861,0.799-10.113-1.637-12.459-5.987
							c-2.169-4.021-1.663-9.324,0.993-13.094c0.871-1.236,2.516-1.648,3.846-0.93l0,0c1.325,0.715,1.927,2.324,1.33,3.707
							c-0.976,2.262-0.837,5.024,0.545,7.029c1.223,1.774,3.325,2.817,5.47,2.917c1.943,0.091,3.3,1.973,2.707,3.826
							C327.974,203.045,327.899,203.261,327.815,203.482z"/>
					</g>
				</g>
				<g>
					<g>
						<defs>
							<path id="SVGID_00000121252191341440653610000005914109565519963802_" d="M173.431,328.652
								c4.059-0.714,8.357-0.189,12.274,1.623c49.89,23.073,127.475,17.128,174.875-10.576c6.521-3.811,19.685-0.753,21.27,16.331
								c1.829,19.711-9.42,28.269-17.956,32.211c-60.142,27.773-131.265,29.151-194.739,10.836
								c-4.793-1.383-9.016-4.388-11.601-8.655c-6.736-11.118-3.468-26.937,5.038-35.963"/>
						</defs>
						<use xlink:href="#SVGID_00000121252191341440653610000005914109565519963802_"  style="overflow:visible;fill:#F08B2E;"/>
						<clipPath id="SVGID_00000052802232329690812480000007375914967885085833_">
							<use xlink:href="#SVGID_00000121252191341440653610000005914109565519963802_"  style="overflow:visible;"/>
						</clipPath>
						<path style="clip-path:url(#SVGID_00000052802232329690812480000007375914967885085833_);fill:#FAA937;" d="M182.542,325.618
							c6.57,3.885,11.81,9.976,14.669,17.053c2.049,5.073,2.867,10.631,2.247,17.246c-0.466,4.978,2.991,9.451,7.886,10.466
							c38.71,8.028,76.016,6.443,114.919-0.696c14.899-2.734,35.034-8.914,47.23-17.897c12.197-8.983,13.421-33.486,4.173-49.257
							C306.201,288.984,248.992,312.593,182.542,325.618z"/>
						
							<use xlink:href="#SVGID_00000121252191341440653610000005914109565519963802_"  style="overflow:visible;fill:none;stroke:#4F2C26;stroke-width:3;stroke-linecap:round;stroke-linejoin:round;stroke-miterlimit:10;"/>
					</g>
					<g>
						<path style="fill:#FAA937;" d="M183.097,343.754c-2.468-2.886-6.719-3.942-10.386-2.957c-3.667,0.984-6.695,3.807-8.363,7.218
							s-2.061,7.352-1.582,11.118c0.405,3.178,1.603,6.533,4.323,8.227c1.933,1.205,4.404,1.373,6.593,0.742
							c2.189-0.632,4.111-2.001,5.684-3.648C184.479,359.1,187.836,349.296,183.097,343.754z"/>
						<path style="fill:none;stroke:#4F2C26;stroke-width:3;stroke-linecap:round;stroke-linejoin:round;stroke-miterlimit:10;" d="
							M169.98,337.49c4.396-1.87,9.8,0.411,12.479,4.366c2.68,3.954,3.016,9.117,2.061,13.798c-0.743,3.643-2.265,7.215-4.89,9.848
							c-2.625,2.633-6.456,4.207-10.118,3.569c-3.662-0.639-6.912-3.768-7.141-7.479"/>
					</g>
				</g>
			</g>
			<g>
				
					<path style="fill:#F08B2E;stroke:#4F2C26;stroke-width:3;stroke-linecap:round;stroke-linejoin:round;stroke-miterlimit:10;" d="
					M172.22,299.821c-5.579,2.105-13.04,4.492-19.874,5.978c-10.236,2.225-20.971-0.164-29.209-6.634
					c-1.998-1.569-3.773-3.209-5.062-4.797c-4.643,5.03-9.285,10.06-14.339,16.531c6.288,4.876,13.268,8.856,20.742,11.954
					c6.359,2.636,13.314,3.431,20.103,2.293c8.054-1.35,15.175-3.512,23.986-6.277"/>
				<g>
					
						<path style="fill:#F08B2E;stroke:#4F2C26;stroke-width:3;stroke-linecap:round;stroke-linejoin:round;stroke-miterlimit:10;" d="
						M121.489,300.647c2.57-6.933,1.258-14.595-3.459-21.198c-0.991-4.933-0.592-10.136,1.137-14.861
						c0.82-2.239,1.952-4.581,1.388-6.898c-0.764-3.14-4.606-4.798-7.74-4.008c-3.134,0.79-5.514,3.403-7.033,6.256
						c-2.753,5.169-3.2,11.514-3.442,18.085c-6.935-2.189-17.56-3.387-22.052,1.841c-2.38,2.769-1.917,8.079,1.246,11.243
						c-0.149,4.14-0.296,8.591,0.412,12.673c0.709,4.082,2.346,8.116,5.305,11.016c3.367,3.299,8.15,4.835,12.853,5.143
						c2.343,0.154,5.113,0.036,7.177-0.915"/>
					<path style="fill:none;stroke:#4F2C26;stroke-width:3;stroke-linecap:round;stroke-linejoin:round;stroke-miterlimit:10;" d="
						M101.122,277.64c3.166,0.759,9.552,4.484,6.799,9.663c-1.091,2.052-3.507,2.966-5.755,3.536
						c-5.315,1.348-10.876,1.716-16.322,1.081"/>
					<path style="fill:none;stroke:#4F2C26;stroke-width:3;stroke-linecap:round;stroke-linejoin:round;stroke-miterlimit:10;" d="
						M107.863,290.282c0.012,0.024,0.023,0.049,0.035,0.073c1.813,3.889-0.074,8.678-3.832,10.199
						c-4.989,2.019-10.453,2.925-15.845,2.593"/>
					<path style="fill:none;stroke:#4F2C26;stroke-width:3;stroke-linecap:round;stroke-linejoin:round;stroke-miterlimit:10;" d="
						M108.007,299.541c0.014,0.018,0.027,0.037,0.041,0.055c2.501,3.397,0.768,8.076-3.448,9.61c-3.107,1.13-6.55,1.7-9.977,1.605"
						/>
					<path style="fill:none;stroke:#4F2C26;stroke-width:3;stroke-linecap:round;stroke-linejoin:round;stroke-miterlimit:10;" d="
						M107.218,308.384c5.075,1.335,5.14,8.899,0.064,10.639c-5.612,1.925-10.465,0.172-11.436,0.28"/>
				</g>
			</g>
			<g>
				<g>
					
						<path style="fill:#5678A8;stroke:#4F2C26;stroke-width:3;stroke-linecap:round;stroke-linejoin:round;stroke-miterlimit:10;" d="
						M194.175,247.455c-13.712,10.19-27.425,20.38-41.766,31.92c-1.208,0.972-1.967,2.409-2.086,3.956
						c-0.273,3.546-0.194,7.11,0.33,10.593c0.361,2.402,2.207,4.306,4.601,4.718c0.032,0.005,0.063,0.011,0.095,0.016
						c3.177,0.543,6.143-1.699,6.517-4.901c0.94-8.032,6.078-15.556,12.697-20.467c8.182-6.07,18.307-8.837,28.27-10.966
						C201.586,256.302,199.002,250.562,194.175,247.455z"/>
					<g>
						<g>
							
								<path style="fill:#5678A8;stroke:#4F2C26;stroke-width:3;stroke-linecap:round;stroke-linejoin:round;stroke-miterlimit:10;" d="
								M372.705,243.22c-21.868-3.247-56.818-5.492-78.378-2.395c-4.261-1.676-8.367-2.304-12.429-2.068
								c-3.137,0.182-6.238,0.879-9.163,2.025c-21.583-3.032-56.304-0.793-78.068,2.438c-1.82,0.27-3.222,1.788-3.286,3.628
								c-0.063,1.826,0.004,3.657,0.2,5.474c0.199,1.847,1.733,3.274,3.585,3.419c1.692,0.133,2.604,0.136,3.517,0.139
								c-0.518,11.454,0.492,22.975,2.972,34.168c2.291,10.34,10.208,18.581,20.433,21.341c8.046,2.172,16.656,2.994,25.239,2.39
								c13.809-0.971,24.858-11.8,26.48-25.547c1.292-10.945,1.674-21.745,1.191-32.429c5.716-1.143,11.63-1.305,17.399-0.464
								c-0.516,10.834-0.142,21.788,1.169,32.892c1.623,13.748,12.671,24.576,26.48,25.547c8.582,0.603,17.193-0.219,25.238-2.39
								c10.225-2.76,18.142-11.001,20.433-21.341c2.48-11.194,3.49-22.714,2.972-34.168c0.913-0.003,1.825-0.006,3.517-0.139
								c1.852-0.146,3.385-1.573,3.585-3.419c0.196-1.817,0.263-3.648,0.2-5.474C375.927,245.009,374.525,243.49,372.705,243.22z"/>
						</g>
						<g>
							<defs>
								<path id="SVGID_00000176028598480420727500000013073596002298980790_" d="M209.013,283.213
									c-0.97-8.369-1.336-18.377-1.089-26.535c17.471-2.481,40.473-2.109,58.09-0.923c0.636,7.763,0.801,18.325,0.038,27.401
									c-1.061,12.614-11.771,22.172-24.428,21.93c-4.113-0.078-8.278-0.403-12.299-0.964
									C218.597,302.625,210.26,293.974,209.013,283.213z"/>
							</defs>
							<use xlink:href="#SVGID_00000176028598480420727500000013073596002298980790_"  style="overflow:visible;fill:#354973;"/>
							<clipPath id="SVGID_00000138572989344406278230000004770881969163868590_">
								<use xlink:href="#SVGID_00000176028598480420727500000013073596002298980790_"  style="overflow:visible;"/>
							</clipPath>
							<g style="clip-path:url(#SVGID_00000138572989344406278230000004770881969163868590_);">
								<polygon style="fill:#93C3ED;" points="203.13,274.255 230.177,246.242 239.257,247.401 204.676,283.528 								"/>
								<polygon style="fill:#93C3ED;" points="206.028,293.381 244.473,249.333 260.894,250.299 214.915,303.233 								"/>
							</g>
							
								<use xlink:href="#SVGID_00000176028598480420727500000013073596002298980790_"  style="overflow:visible;fill:none;stroke:#4F2C26;stroke-width:3;stroke-linecap:round;stroke-linejoin:round;stroke-miterlimit:10;"/>
						</g>
						<g>
							<defs>
								<path id="SVGID_00000063601681960016084900000002334853835793522619_" d="M358.359,283.213
									c0.97-8.369,1.336-18.377,1.089-26.535c-17.471-2.481-40.473-2.109-58.09-0.923c-0.636,7.763-0.802,18.325-0.038,27.401
									c1.061,12.614,11.772,22.172,24.428,21.93c4.113-0.078,8.278-0.403,12.299-0.964
									C348.775,302.625,357.112,293.974,358.359,283.213z"/>
							</defs>
							<use xlink:href="#SVGID_00000063601681960016084900000002334853835793522619_"  style="overflow:visible;fill:#354973;"/>
							<clipPath id="SVGID_00000176036360373475321930000013942112979811998130_">
								<use xlink:href="#SVGID_00000063601681960016084900000002334853835793522619_"  style="overflow:visible;"/>
							</clipPath>
							<g style="clip-path:url(#SVGID_00000176036360373475321930000013942112979811998130_);">
								<polygon style="fill:#93C3ED;" points="292.529,276.176 319.576,248.163 328.655,249.322 294.074,285.449 								"/>
								<polygon style="fill:#93C3ED;" points="295.427,295.301 333.872,251.254 350.293,252.22 304.314,305.154 								"/>
							</g>
							
								<use xlink:href="#SVGID_00000063601681960016084900000002334853835793522619_"  style="overflow:visible;fill:none;stroke:#4F2C26;stroke-width:3;stroke-linecap:round;stroke-linejoin:round;stroke-miterlimit:10;"/>
						</g>
					</g>
				</g>
				<g>
					<path style="fill:none;stroke:#4F2C26;stroke-width:3;stroke-linecap:round;stroke-linejoin:round;stroke-miterlimit:10;" d="
						M296.11,314.187c-3.708,1.811-8.075,2.232-12.06,1.161c-3.985-1.071-7.553-3.624-9.853-7.051"/>
					<path style="fill:none;stroke:#4F2C26;stroke-width:3;stroke-linecap:round;stroke-linejoin:round;stroke-miterlimit:10;" d="
						M276.878,301.811c-0.021,4.756-4.389,9.058-9.145,9.007"/>
					<path style="fill:none;stroke:#4F2C26;stroke-width:3;stroke-linecap:round;stroke-linejoin:round;stroke-miterlimit:10;" d="
						M294.747,307.637c-0.417,2.144,0.188,4.464,1.598,6.133c1.41,1.668,3.597,2.651,5.781,2.597"/>
				</g>
				<path style="fill:none;stroke:#4F2C26;stroke-width:3;stroke-linecap:round;stroke-linejoin:round;stroke-miterlimit:10;" d="
					M213.853,226.835c2.787-4.148,7.412-7.009,12.368-7.652c4.956-0.643,10.158,0.943,13.911,4.242"/>
				<path style="fill:none;stroke:#4F2C26;stroke-width:3;stroke-linecap:round;stroke-linejoin:round;stroke-miterlimit:10;" d="
					M315.446,223.049c2.992-3.21,7.548-4.887,11.906-4.383c4.359,0.503,8.413,3.176,10.594,6.983"/>
			</g>
		</g>
		<g>
			<g>
				<path style="fill:#FFFFFF;" d="M409,390.874c-0.417,9.091-2.166,17.16-9.107,21.25h18.215
					C411.348,407.742,409.107,400.082,409,390.874z"/>
				<path style="fill:#FFFFFF;" d="M409,433.374c-0.417-9.091-2.166-17.16-9.107-21.25h18.215
					C411.348,416.506,409.107,424.166,409,433.374z"/>
			</g>
			<g>
				<path style="fill:#FFFFFF;" d="M409,126.995c-0.417,9.091-2.166,17.16-9.107,21.25h18.215
					C411.348,143.864,409.107,136.203,409,126.995z"/>
				<path style="fill:#FFFFFF;" d="M409,169.496c-0.417-9.091-2.166-17.16-9.107-21.25h18.215
					C411.348,152.628,409.107,160.288,409,169.496z"/>
			</g>
			<g>
				<path style="fill:#FFFFFF;" d="M77.283,175.652c-0.417,9.091-2.166,17.16-9.107,21.25H86.39
					C79.631,192.52,77.39,184.86,77.283,175.652z"/>
				<path style="fill:#FFFFFF;" d="M77.283,218.153c-0.417-9.091-2.166-17.16-9.107-21.25H86.39
					C79.631,201.285,77.39,208.945,77.283,218.153z"/>
			</g>
			<g>
				<path style="fill:#FFFFFF;" d="M129.214,137.621c-0.208,4.546-1.083,8.58-4.554,10.625h9.107
					C130.388,146.055,129.268,142.225,129.214,137.621z"/>
				<path style="fill:#FFFFFF;" d="M129.214,158.871c-0.208-4.546-1.083-8.58-4.554-10.625h9.107
					C130.388,150.437,129.268,154.267,129.214,158.871z"/>
			</g>
			<g>
				<path style="fill:#FFFFFF;" d="M138.321,395.677c-0.208,4.546-1.083,8.58-4.554,10.625h9.107
					C139.495,404.111,138.375,400.281,138.321,395.677z"/>
				<path style="fill:#FFFFFF;" d="M138.321,416.927c-0.208-4.546-1.083-8.58-4.554-10.625h9.107
					C139.495,408.493,138.375,412.323,138.321,416.927z"/>
			</g>
			<g>
				<path style="fill:#FFFFFF;" d="M91,351.718c-0.208,4.546-1.083,8.58-4.554,10.625h9.107
					C92.174,360.152,91.054,356.322,91,351.718z"/>
				<path style="fill:#FFFFFF;" d="M91,372.968c-0.208-4.546-1.083-8.58-4.554-10.625h9.107
					C92.174,364.534,91.054,368.364,91,372.968z"/>
			</g>
			<g>
				<path style="fill:#FFFFFF;" d="M325,71.995c-0.208,4.546-1.083,8.58-4.554,10.625h9.107C326.174,80.43,325.054,76.6,325,71.995z
					"/>
				<path style="fill:#FFFFFF;" d="M325,93.246c-0.208-4.546-1.083-8.58-4.554-10.625h9.107
					C326.174,84.812,325.054,88.642,325,93.246z"/>
			</g>
			<g>
				<path style="fill:#FFFFFF;" d="M399.893,227.324c-0.208,4.546-1.083,8.58-4.554,10.625h9.107
					C401.067,235.759,399.946,231.928,399.893,227.324z"/>
				<path style="fill:#FFFFFF;" d="M399.893,248.575c-0.208-4.546-1.083-8.58-4.554-10.625h9.107
					C401.067,240.141,399.946,243.971,399.893,248.575z"/>
			</g>
			<g>
				<path style="fill:#FFFFFF;" d="M342.554,395.677c-0.208,4.546-1.083,8.58-4.554,10.625h9.107
					C343.727,404.111,342.607,400.281,342.554,395.677z"/>
				<path style="fill:#FFFFFF;" d="M342.554,416.927c-0.208-4.546-1.083-8.58-4.554-10.625h9.107
					C343.727,408.493,342.607,412.323,342.554,416.927z"/>
			</g>
		</g>
	</g>
</g>
</svg>
