<svg width="280" height="144" viewBox="0 0 280 144" fill="none" xmlns="http://www.w3.org/2000/svg">
<path d="M279.9 0H104.662V119.599H279.9V0Z" fill="#3D3935"/>
<path d="M98.6466 0H0V119.599H98.6466V0Z" fill="#DA291C"/>
<path d="M98.6466 0H0V119.599H98.6466V0Z" fill="#DA291C"/>
<path d="M74.8874 18.3459C74.9876 18.0451 74.9876 17.9449 74.9876 17.8446C74.9876 17.7444 74.7871 17.6441 74.4863 17.5439V17.1429L76.1906 17.8446L76.4914 21.9549L79.4989 19.0476L81.2031 19.6491L81.1029 20.0501C80.7019 19.9499 80.5014 19.9499 80.5014 19.9499C80.5014 19.9499 80.4011 20.0501 80.2006 20.3509L78.8974 23.5589C78.7971 23.8597 78.7972 23.9599 78.7972 23.9599C78.7972 23.9599 78.8974 24.1604 79.1981 24.2607V24.6617L76.7922 23.7594L76.8924 23.3584C77.2934 23.4586 77.4939 23.4586 77.5941 23.4586C77.6944 23.4586 77.7946 23.2581 77.8949 22.9574L78.9976 20.2506L75.6894 23.3584L75.4888 23.2582L75.1881 19.0476L74.1856 21.4536C73.9851 21.8546 73.9851 22.0552 74.0854 22.2557C74.0854 22.3559 74.1856 22.3559 74.4863 22.5564V22.9574L72.3811 22.1554L72.5816 21.7544C72.9826 21.8547 73.1831 21.8546 73.2834 21.8546C73.3836 21.8546 73.4838 21.6542 73.6843 21.2531L74.8874 18.3459ZM69.3736 16.8421L68.6718 19.2481C68.5716 19.6491 68.5716 19.9499 68.5716 20.1504C68.6718 20.5514 68.9726 20.8521 69.4738 20.9524C70.0753 21.1529 70.5766 21.0526 70.7771 20.7519C70.9776 20.5514 71.0778 20.2506 71.1781 19.7494L71.7796 17.7444C71.8799 17.3434 71.8798 17.1429 71.8798 17.0426C71.7796 16.9424 71.6793 16.8421 71.3786 16.7419V16.3408L73.4838 16.8421L73.3836 17.2431C72.9826 17.1429 72.7821 17.2431 72.6818 17.2431C72.5816 17.3434 72.4813 17.4436 72.3811 17.8446L71.7796 19.8496C71.5791 20.3509 71.3786 20.7519 71.1781 21.0526C70.6768 21.5539 69.9751 21.6541 69.0728 21.4536C68.1706 21.2531 67.569 20.7519 67.4688 20.1504C67.3685 19.8496 67.3686 19.3484 67.5691 18.9474L68.2708 16.5414C68.3711 16.2406 68.3711 16.1404 68.2708 16.0401C68.2708 15.9399 68.0703 15.9398 67.7696 15.8396V15.4386L70.3761 16.0401L70.2759 16.4411C69.8749 16.3408 69.6743 16.3408 69.5741 16.4411C69.5741 16.4411 69.4738 16.6416 69.3736 16.8421ZM66.4663 16.8421C66.4663 16.3408 66.3661 16.0401 66.2658 15.9398C66.1656 15.8396 65.965 15.7394 65.4638 15.6391H65.163L64.361 19.4486C64.2608 19.7494 64.361 19.8496 64.361 19.9499C64.4613 20.0501 64.5615 20.1504 64.9625 20.1504V20.5514L62.356 20.0501L62.4563 19.6491C62.9575 19.7494 63.158 19.6491 63.158 19.6491C63.2583 19.6491 63.2583 19.4486 63.3585 19.1479L64.1605 15.4386L63.8598 15.3383C63.4588 15.2381 63.158 15.2381 62.9575 15.3383C62.8573 15.4386 62.6568 15.6391 62.4563 16.0401H61.955L62.356 14.4361L67.1681 15.3383L66.8673 16.9424L66.4663 16.8421ZM61.2533 19.8496L56.6417 19.3484V18.9474C57.0427 18.9474 57.2433 18.9474 57.3435 18.8471C57.3435 18.8471 57.4437 18.7469 57.4437 18.4461L57.945 15.0376C57.945 14.7368 57.945 14.6366 57.945 14.5363C57.945 14.5363 57.7445 14.4361 57.4437 14.3358L57.3435 13.9348L59.95 14.2356V14.6366C59.549 14.6366 59.3485 14.6366 59.2483 14.6366C59.148 14.6366 59.148 14.7368 59.0478 15.0376L58.5465 18.7469C58.5465 18.8471 58.5465 18.8471 58.5465 18.8471L58.8473 18.9474H59.2483C59.95 19.0476 60.4513 19.0476 60.6518 18.9474C60.8523 18.8471 61.153 18.6466 61.4538 18.1454H61.955L61.2533 19.8496ZM51.4287 17.4436L53.3335 13.6341H53.6342L55.539 18.2456C55.6393 18.5464 55.7395 18.7469 55.8397 18.7469C55.8397 18.7469 56.0403 18.8471 56.2408 18.9474L56.341 19.3484L53.935 19.2481V18.8471C54.336 18.8471 54.4362 18.8471 54.5365 18.7469V18.4461L54.4362 18.1454L54.1355 17.4436L52.1305 17.3433L51.7295 18.1454C51.7295 18.2456 51.6292 18.3459 51.6292 18.3459C51.6292 18.4461 51.6292 18.4461 51.7295 18.5464C51.7295 18.5464 51.93 18.6466 52.1305 18.6466L52.2307 19.0476L50.326 18.9474V18.5464C50.6267 18.5464 50.727 18.4461 50.8272 18.3459C51.0277 18.3459 51.2282 18.0451 51.4287 17.4436ZM53.935 16.8421L53.2333 15.1379L52.4312 16.8421H53.935ZM42.7069 14.6366C42.4062 14.4361 42.4062 14.3358 42.3059 14.3358C42.2057 14.3358 42.1054 14.3358 42.0052 14.3358L41.8047 13.9348L43.4086 13.8346L46.6167 17.1429L46.4162 14.9373C46.4162 14.5363 46.316 14.3359 46.2157 14.2356C46.1155 14.2356 46.0152 14.1353 45.7145 14.1353L45.5139 13.7344L47.7195 13.6341V14.0351C47.3185 14.1353 47.1179 14.2356 47.1179 14.2356C47.0177 14.3359 47.0177 14.5363 47.0177 14.9373L47.3184 19.1479H47.0177L43.2082 15.3383L43.4086 18.0451C43.4086 18.4461 43.5089 18.6466 43.6092 18.7469C43.6092 18.7469 43.8097 18.8471 44.1104 18.8471L44.3109 19.2481L42.1054 19.4486V19.0476C42.6066 18.9474 42.7069 18.8471 42.8072 18.8471C42.9074 18.7469 42.9074 18.5464 42.9074 18.1454L42.7069 14.6366ZM39.4989 15.1379C39.4989 14.8371 39.3986 14.7369 39.2984 14.7369C39.1981 14.7369 39.0979 14.6366 38.6969 14.7369L38.4964 14.3358L41.2032 14.0351V14.4361C40.7019 14.5363 40.6017 14.5363 40.5014 14.6366C40.5014 14.6366 40.4012 14.8371 40.5014 15.1379L40.9024 18.5464C40.9024 18.8471 41.0026 18.9474 41.1029 19.0476C41.2031 19.0476 41.3034 19.1479 41.7044 19.0476L41.9049 19.4486L39.1982 19.7494L39.0979 19.3484C39.5991 19.2481 39.6994 19.2481 39.7996 19.1479C39.7996 19.1479 39.8999 18.9474 39.7996 18.6466L39.4989 15.1379ZM34.7871 14.8371L35.1881 14.6366L35.6894 16.6416L35.2884 16.7419C35.0879 16.3409 34.8874 16.1403 34.6869 15.9398C34.2859 15.6391 33.8848 15.5389 33.3836 15.6391C32.8823 15.7394 32.4813 16.0401 32.2808 16.4411C31.9801 16.9424 31.9801 17.5439 32.1806 18.2456C32.2809 18.9474 32.5816 19.3484 33.0828 19.6491C33.4838 19.9499 33.9851 20.0501 34.5866 19.9499C34.9876 19.8496 35.2884 19.7494 35.5891 19.4486C35.7896 19.3484 35.9901 19.1479 36.0904 18.8471L36.5916 18.9474C36.3911 19.3484 36.1906 19.5489 35.9901 19.7494C35.5891 20.1504 35.0879 20.3509 34.4864 20.4511C33.5841 20.6516 32.7821 20.5514 32.1806 20.0501C31.5791 19.6491 31.1781 19.0476 30.9776 18.2456C30.7771 17.4436 30.8773 16.7419 31.2783 16.1404C31.6793 15.4386 32.3811 15.0376 33.2834 14.8371C33.5841 14.7368 33.8849 14.7369 34.2859 14.7369H34.7871C34.8874 14.7369 34.8873 14.7369 34.8873 14.6366C34.6868 14.9374 34.7871 14.8371 34.7871 14.8371ZM25.6643 17.9449L26.4663 20.3509C26.5666 20.7519 26.767 20.9524 26.8673 21.1529C27.168 21.4536 27.5691 21.5539 28.1706 21.3534C28.7721 21.1529 29.0728 20.8521 29.1731 20.4511C29.1731 20.2506 29.1731 19.8496 28.9726 19.4486L28.371 17.5439C28.2708 17.1429 28.0703 16.9424 28.0703 16.9424C27.9701 16.9424 27.7696 16.8421 27.4688 16.9424L27.1681 16.6416L29.2733 16.0401L29.3736 16.4411C28.9725 16.6416 28.8723 16.7418 28.7721 16.8421C28.7721 16.9423 28.772 17.1429 28.8723 17.5439L29.4738 19.4486C29.6743 19.9499 29.6743 20.4511 29.5741 20.7519C29.3736 21.4536 28.8723 21.8546 27.9701 22.1554C27.0678 22.4561 26.366 22.3559 25.8648 21.8546C25.564 21.6541 25.3636 21.2531 25.2633 20.7519L24.4613 18.4461C24.3611 18.1454 24.2608 18.0451 24.2608 18.0451C24.1605 18.0451 24.0603 18.0451 23.7595 18.0451L23.4588 17.7444L25.9651 17.0426L26.0653 17.4436C25.6643 17.5439 25.4638 17.6441 25.4638 17.7444C25.5641 17.5439 25.5641 17.6441 25.6643 17.9449ZM18.4463 20.3509C18.346 20.0501 18.2457 19.9499 18.1455 19.9499C18.0452 19.9499 17.945 19.9499 17.6442 20.0501L17.3435 19.7494L19.549 18.9474C20.2508 18.6466 20.9525 18.5464 21.554 18.6466C22.6568 18.7469 23.4588 19.3484 23.8598 20.3509C24.0603 20.7519 24.0603 21.1529 24.0603 21.5539C24.0603 21.9549 23.9601 22.3559 23.6593 22.6567C23.4588 22.8572 23.3586 23.0577 23.1581 23.2582C22.7571 23.5589 22.356 23.7594 21.7545 24.0602L19.4488 24.8621L19.3485 24.4611C19.7495 24.2606 19.8498 24.1604 19.8498 24.1604C19.8498 24.0602 19.8498 23.9599 19.7495 23.6592L18.4463 20.3509ZM22.757 20.6516C22.4563 19.9499 22.0553 19.5489 21.4538 19.3484C20.9525 19.1479 20.351 19.2481 19.6493 19.4486C19.4488 19.5489 19.3485 19.5489 19.3485 19.5489C19.3485 19.5489 19.3485 19.5489 19.3485 19.6491L20.8523 23.3584C20.8523 23.4586 20.9525 23.4586 20.9525 23.4586C20.9525 23.4586 21.0528 23.4586 21.2533 23.3584C21.8548 23.1579 22.2558 22.8571 22.5565 22.5564C22.9575 22.1554 23.0578 21.4536 22.757 20.6516Z" fill="white"/>
<path d="M49.4235 106.366L48.822 106.065C34.1854 98.3459 24.8621 87.8196 21.2531 74.787C19.6491 68.9725 18.7468 60.6516 18.7468 51.5288V27.6692H79.8997V51.5288C79.8997 60.6516 78.9975 68.8722 77.3934 74.787C73.7844 87.9198 64.5613 98.4461 49.9247 106.065L49.4235 106.366ZM21.1528 30.0752V51.5288C21.1528 60.4511 22.0551 68.4712 23.5588 74.1855C26.9674 86.4161 35.5889 96.3409 49.3233 103.659C63.0576 96.3409 71.6792 86.4161 75.0877 74.1855C76.6917 68.4712 77.4937 60.4511 77.4937 51.5288V30.0752H21.1528Z" fill="white"/>
<path d="M36.9927 52.6316V53.1328C35.8899 53.2331 35.1881 53.3333 34.7871 53.6341C34.4864 53.9348 34.2859 54.5363 34.2859 55.5388V64.3609C34.2859 65.7644 34.4864 66.9674 34.8874 67.7694C35.6894 69.2732 37.1932 69.9749 39.2984 69.9749C41.7044 69.9749 43.3084 69.1729 44.1104 67.6692C44.6117 66.8672 44.8122 65.5639 44.8122 63.7594V56.6416C44.8122 55.1378 44.6117 54.2356 44.2107 53.8346C43.8097 53.4336 43.108 53.2331 42.0052 53.1328V52.6316H48.8222V53.1328C47.7195 53.2331 46.9175 53.5338 46.6167 53.9348C46.316 54.3358 46.1154 55.2381 46.1154 56.7419V63.9599C46.1154 65.8647 45.8147 67.3684 45.2132 68.4712C44.1105 70.4762 41.905 71.3785 38.6969 71.3785C35.4889 71.3785 33.3837 70.3759 32.1806 68.4712C31.5791 67.4687 31.2784 66.0652 31.2784 64.3609V55.6391C31.2784 54.6366 31.0779 54.0351 30.7771 53.7343C30.4764 53.4336 29.7746 53.2331 28.6719 53.1328V52.6316H36.9927ZM49.8247 70.8772V70.376C50.5265 70.2757 51.128 70.0752 51.529 69.5739C51.93 69.0727 52.5315 67.8697 53.4337 65.8647L59.5491 52.3308H60.1505L67.4688 67.9699C67.9701 68.9724 68.3711 69.6742 68.5716 69.8747C68.8724 70.0752 69.3736 70.2757 70.0754 70.376V70.8772H62.5566V70.376C63.4588 70.2757 63.9601 70.1754 64.2609 70.0752C64.4614 69.9749 64.6618 69.6742 64.6618 69.2732C64.6618 69.1729 64.6618 68.8722 64.5616 68.5714C64.4613 68.2707 64.3611 67.8697 64.1606 67.4687L62.9575 64.8622H55.2383C54.4363 66.6667 54.0353 67.7694 53.8348 68.1704C53.7345 68.5714 53.6342 68.8722 53.6342 69.0727C53.6342 69.5739 53.8348 69.8747 54.2358 70.0752C54.4363 70.1754 54.9375 70.2757 55.6393 70.2757V70.777H49.8247V70.8772ZM62.4563 63.7594L59.0478 56.1404L55.7395 63.7594H62.4563Z" fill="white"/>
<path d="M122.306 31.7794V40.7017C122.306 44.1103 123.81 45.5138 125.815 45.5138C128.02 45.5138 129.524 44.01 129.524 40.7017V31.7794H131.529V40.6015C131.529 45.213 129.123 47.1178 125.815 47.1178C122.707 47.1178 120.401 45.3133 120.401 40.7017V31.8797H122.306V31.7794Z" fill="white"/>
<path d="M136.541 46.817V31.7794H138.646L143.459 39.3985C144.561 41.203 145.464 42.7068 146.165 44.3108C145.965 42.3058 145.965 40.5012 145.965 38.0952V31.7794H147.769V46.817H145.764L140.952 39.198C139.95 37.4937 138.947 35.7895 138.145 34.1855H138.045C138.145 36.0902 138.246 37.8947 138.246 40.401V46.817H136.541Z" fill="white"/>
<path d="M154.988 31.7794H153.083V46.817H154.988V31.7794Z" fill="white"/>
<path d="M163.509 46.817L158.596 31.7794H160.702L163.007 39.198C163.609 41.203 164.21 43.0075 164.611 44.812C165.012 43.1078 165.614 41.203 166.316 39.198L168.822 31.7794H170.927L165.514 46.817H163.509Z" fill="white"/>
<path d="M182.256 39.6992H176.341V45.213H182.957V46.817H174.436V31.7794H182.556V33.3834H176.341V38.0952H182.256V39.6992Z" fill="white"/>
<path d="M189.173 38.797H191.178C193.283 38.797 194.587 37.6942 194.587 35.8897C194.587 33.9849 193.183 33.0827 191.078 33.0827C190.176 33.0827 189.474 33.183 189.173 33.2832V38.797ZM187.268 31.9799C188.271 31.7794 189.674 31.6792 190.978 31.6792C193.083 31.6792 194.386 32.0802 195.288 32.8822C196.09 33.5839 196.491 34.5865 196.491 35.7895C196.491 37.7945 195.288 39.0977 193.684 39.599V39.6993C194.887 40.1003 195.589 41.203 195.89 42.7068C196.391 44.812 196.692 46.2155 197.093 46.8171H195.088C194.887 46.416 194.486 45.1128 194.085 43.208C193.684 41.1028 192.882 40.3008 191.078 40.3008H189.273V46.8171H187.369V31.9799H187.268Z" fill="white"/>
<path d="M200.802 44.411C201.704 44.9123 202.907 45.4135 204.311 45.4135C206.316 45.4135 207.419 44.3108 207.419 42.807C207.419 41.4035 206.617 40.6015 204.612 39.7995C202.206 38.8973 200.602 37.6942 200.602 35.4887C200.602 33.183 202.506 31.3784 205.514 31.3784C207.018 31.3784 208.12 31.7795 208.822 32.0802L208.321 33.6842C207.82 33.3835 206.817 32.9825 205.414 32.9825C203.308 32.9825 202.607 34.1855 202.607 35.2882C202.607 36.6918 203.509 37.3935 205.614 38.1955C208.12 39.198 209.424 40.401 209.424 42.6065C209.424 44.9123 207.719 46.9173 204.11 46.9173C202.607 46.9173 201.103 46.5163 200.301 45.9148L200.802 44.411Z" fill="white"/>
<path d="M215.74 31.7794H213.835V46.817H215.74V31.7794Z" fill="white"/>
<path d="M222.857 45.213C223.358 45.3133 224.06 45.3133 224.862 45.3133C229.073 45.3133 231.278 43.0075 231.278 38.8972C231.278 35.3885 229.273 33.0827 225.163 33.0827C224.16 33.0827 223.358 33.183 222.857 33.2832V45.213ZM220.952 31.9799C222.155 31.7794 223.559 31.6792 225.063 31.6792C227.87 31.6792 229.875 32.2807 231.178 33.584C232.481 34.787 233.283 36.5915 233.283 38.9975C233.283 41.4035 232.481 43.5088 231.078 44.812C229.674 46.2155 227.368 47.0175 224.461 47.0175C223.058 47.0175 221.955 46.9173 220.952 46.817V31.9799Z" fill="white"/>
<path d="M244.712 40.5012L243.208 36.1905C242.907 35.188 242.607 34.2857 242.406 33.4837C242.206 34.3859 241.905 35.2882 241.604 36.1905L240.1 40.6015H244.712V40.5012ZM239.699 42.1053L238.095 46.817H236.09L241.203 31.7794H243.509L248.622 46.817H246.516L244.912 42.1053H239.699Z" fill="white"/>
<path d="M254.737 45.213C255.238 45.3133 255.94 45.3133 256.742 45.3133C260.852 45.3133 263.158 43.0075 263.158 38.8972C263.158 35.3885 261.153 33.0827 257.043 33.0827C256.04 33.0827 255.238 33.183 254.737 33.2832V45.213ZM252.732 31.9799C253.935 31.7794 255.338 31.6792 256.842 31.6792C259.649 31.6792 261.654 32.2807 262.957 33.584C264.261 34.787 265.063 36.5915 265.063 38.9975C265.063 41.4035 264.261 43.5088 262.857 44.812C261.454 46.2155 259.148 47.0175 256.241 47.0175C254.837 47.0175 253.734 46.9173 252.732 46.817V31.9799Z" fill="white"/>
<path d="M128.722 63.2582L127.018 58.2456C126.617 57.1429 126.416 56.0401 126.115 55.0376C125.815 56.0401 125.614 57.1429 125.213 58.2456L123.509 63.2582H128.722ZM123.008 65.0627L121.203 70.5764H118.897L124.812 53.1328H127.519L133.434 70.5764H131.028L129.123 65.0627H123.008Z" fill="white"/>
<path d="M139.549 53.1328V63.4586C139.549 67.3684 141.253 68.9724 143.559 68.9724C146.165 68.9724 147.769 67.2682 147.769 63.4586V53.1328H150.075V63.2582C150.075 68.5714 147.268 70.777 143.458 70.777C139.849 70.777 137.243 68.772 137.243 63.3584V53.1328H139.549Z" fill="white"/>
<path d="M159.398 55.0376H154.085V53.1328H167.018V55.0376H161.704V70.5764H159.398V55.0376Z" fill="white"/>
<path d="M171.729 61.9549C171.729 65.6641 173.734 68.9724 177.243 68.9724C180.852 68.9724 182.857 65.6642 182.857 61.7544C182.857 58.2456 181.053 54.6366 177.343 54.6366C173.534 54.6366 171.729 58.0451 171.729 61.9549ZM185.263 61.6541C185.263 67.6692 181.654 70.8772 177.143 70.8772C172.531 70.8772 169.323 67.2682 169.323 62.0551C169.323 56.5413 172.732 52.9323 177.444 52.9323C182.155 52.8321 185.263 56.4411 185.263 61.6541Z" fill="white"/>
<path d="M190.175 70.5764V53.1328H192.682L198.296 61.9549C199.599 63.9599 200.601 65.8647 201.403 67.5689C201.203 65.2632 201.103 63.1579 201.103 60.4511V53.1328H203.208V70.5764H200.902L195.388 61.7544C194.185 59.8496 192.982 57.8446 192.18 55.9398H192.08C192.18 58.1454 192.281 60.2506 192.281 63.1579V70.5764H190.175Z" fill="white"/>
<path d="M210.727 61.9549C210.727 65.6641 212.732 68.9724 216.241 68.9724C219.85 68.9724 221.855 65.6642 221.855 61.7544C221.855 58.2456 220.05 54.6366 216.341 54.6366C212.531 54.6366 210.727 58.0451 210.727 61.9549ZM224.261 61.6541C224.261 67.6692 220.652 70.8772 216.14 70.8772C211.529 70.8772 208.321 67.2682 208.321 62.0551C208.321 56.5413 211.729 52.9323 216.441 52.9323C221.153 52.8321 224.261 56.4411 224.261 61.6541Z" fill="white"/>
<path d="M243.91 62.8572C243.81 60.4512 243.609 57.5439 243.609 55.3384H243.509C242.907 57.3434 242.206 59.5489 241.303 61.9549L238.196 70.376H236.491L233.684 62.0551C232.882 59.5489 232.181 57.3434 231.679 55.2381H231.579C231.479 57.4436 231.378 60.3509 231.278 62.9574L230.777 70.4762H228.772L229.975 53.0326H232.882L235.89 61.4536C236.591 63.5589 237.193 65.5639 237.694 67.3685H237.795C238.196 65.5639 238.897 63.6592 239.599 61.4536L242.707 53.0326H245.614L246.717 70.4762H244.511L243.91 62.8572Z" fill="white"/>
<path d="M260.351 63.2582L258.646 58.2456C258.245 57.1429 258.045 56.0401 257.744 55.0376H257.644C257.343 56.0401 257.143 57.1429 256.742 58.2456L255.037 63.2582H260.351ZM254.636 65.0627L252.832 70.5764H250.526L256.441 53.1328H259.148L265.062 70.5764H262.656L260.752 65.0627H254.636Z" fill="white"/>
<path d="M120.401 87.1178C120.802 87.218 121.403 87.218 122.005 87.218C125.414 87.218 127.218 85.3133 127.218 82.005C127.218 79.0977 125.614 77.2932 122.306 77.2932C121.504 77.2932 120.902 77.3935 120.501 77.4937V87.1178H120.401ZM118.797 76.2907C119.699 76.1905 120.902 75.99 122.105 75.99C124.411 75.99 126.015 76.4912 127.018 77.4937C128.12 78.4962 128.722 79.8998 128.722 81.9048C128.722 83.9098 128.12 85.5138 126.917 86.6165C125.815 87.7193 123.91 88.4211 121.504 88.4211C120.401 88.4211 119.398 88.4211 118.596 88.3208V76.2907H118.797Z" fill="white"/>
<path d="M146.566 82.6065H141.854V87.0175H147.168V88.4211H140.25V76.0902H146.867V77.4937H141.854V81.3033H146.566V82.6065Z" fill="white"/>
<path d="M181.353 88.02C180.752 88.3208 179.649 88.6215 178.145 88.6215C174.737 88.6215 172.13 86.4161 172.13 82.406C172.13 78.5965 174.737 75.99 178.546 75.99C180.05 75.99 181.053 76.2907 181.454 76.4912L181.053 77.7945C180.451 77.4937 179.549 77.2932 178.546 77.2932C175.639 77.2932 173.734 79.0977 173.734 82.3058C173.734 85.3133 175.439 87.218 178.446 87.218C179.449 87.218 180.351 87.0175 181.053 86.7168L181.353 88.02Z" fill="white"/>
<path d="M194.085 76.0902V81.203H200V76.0902H201.604V88.4211H200V82.6065H194.085V88.4211H192.481V76.0902H194.085Z" fill="white"/>
<path d="M218.045 76.0902H216.441V88.3208H218.045V76.0902Z" fill="white"/>
<path d="M234.085 76.0902H235.689V87.0175H240.902V88.4211H234.085V76.0902Z" fill="white"/>
<path d="M260.651 82.6065H255.94V87.0175H261.253V88.4211H254.336V76.0902H260.952V77.4937H255.94V81.3033H260.651V82.6065Z" fill="white"/>
<path d="M115.789 143.258V136.241L112.381 142.055H111.178L107.669 136.441V143.258H105.163V131.529H107.368L111.779 138.847L116.09 131.529H118.296L118.396 143.258H115.789Z" fill="#DA291C"/>
<path d="M129.724 140.752H124.311L123.308 143.258H120.501L125.714 131.529H128.421L133.634 143.258H130.827L129.724 140.752ZM128.822 138.747L126.917 134.236L125.012 138.747H128.822ZM127.519 130.627H125.514L127.82 128.221H130.627L127.519 130.627Z" fill="#DA291C"/>
<path d="M134.737 142.155L135.639 140.15C136.642 140.852 138.145 141.353 139.549 141.353C141.153 141.353 141.855 140.852 141.855 140.05C141.855 137.845 135.038 139.348 135.038 135.038C135.038 133.033 136.642 131.429 139.95 131.429C141.454 131.429 142.957 131.83 144.06 132.431L143.258 134.536C142.155 133.935 141.053 133.634 140.05 133.634C138.446 133.634 137.845 134.236 137.845 134.937C137.845 137.143 144.662 135.639 144.662 139.95C144.662 141.955 143.058 143.559 139.649 143.559C137.644 143.459 135.739 142.957 134.737 142.155Z" fill="#DA291C"/>
<path d="M152.782 138.246V131.529H153.985V138.246C153.985 141.053 155.288 142.256 157.594 142.256C159.9 142.256 161.203 140.952 161.203 138.246V131.529H162.406V138.246C162.406 141.654 160.601 143.358 157.594 143.358C154.586 143.358 152.782 141.654 152.782 138.246Z" fill="#3D3935"/>
<path d="M176.842 131.529V143.258H175.739L168.221 133.734V143.258H167.018V131.529H168.02L175.539 141.053V131.529H176.842Z" fill="#3D3935"/>
<path d="M182.657 131.529H181.454V143.258H182.657V131.529Z" fill="#3D3935"/>
<path d="M196.992 131.529L191.779 143.258H190.576L185.363 131.529H186.667L191.178 141.754L195.689 131.529H196.992Z" fill="#3D3935"/>
<path d="M207.82 142.256V143.258H199.499V131.529H207.519V132.632H200.702V136.842H206.817V137.845H200.702V142.256H207.82Z" fill="#3D3935"/>
<path d="M219.549 143.258L216.842 139.449C216.541 139.449 216.241 139.549 215.94 139.549H212.732V143.258H211.529V131.529H215.94C218.947 131.529 220.752 133.033 220.752 135.539C220.752 137.343 219.749 138.647 218.045 139.248L220.952 143.258H219.549ZM219.449 135.539C219.449 133.634 218.246 132.632 215.84 132.632H212.732V138.546H215.84C218.246 138.546 219.449 137.444 219.449 135.539Z" fill="#3D3935"/>
<path d="M223.358 141.855L223.86 140.852C224.662 141.654 226.165 142.256 227.769 142.256C229.975 142.256 230.877 141.353 230.877 140.15C230.877 136.942 223.659 138.947 223.659 134.536C223.659 132.832 224.962 131.328 227.97 131.328C229.273 131.328 230.677 131.729 231.579 132.331L231.178 133.333C230.175 132.632 228.972 132.331 227.97 132.331C225.865 132.331 224.862 133.333 224.862 134.436C224.862 137.644 232.08 135.739 232.08 139.95C232.08 141.654 230.677 143.158 227.669 143.158C225.965 143.358 224.261 142.757 223.358 141.855Z" fill="#3D3935"/>
<path d="M236.792 131.529H235.589V143.258H236.792V131.529Z" fill="#3D3935"/>
<path d="M241.504 131.529H246.316C250.025 131.529 252.631 133.935 252.631 137.343C252.631 140.752 250.125 143.158 246.316 143.158H241.504V131.529ZM246.215 142.256C249.323 142.256 251.328 140.251 251.328 137.444C251.328 134.637 249.323 132.632 246.215 132.632H242.707V142.256H246.215Z" fill="#3D3935"/>
<path d="M263.358 140.15H256.842L255.438 143.258H254.135L259.449 131.529H260.652L265.965 143.258H264.662L263.358 140.15ZM262.857 139.148L260.05 132.832L257.243 139.148H262.857Z" fill="#3D3935"/>
<path d="M268.872 131.529H273.684C277.393 131.529 280 133.935 280 137.343C280 140.752 277.494 143.158 273.684 143.158H268.872V131.529ZM273.584 142.256C276.692 142.256 278.697 140.251 278.697 137.444C278.697 134.637 276.692 132.632 273.584 132.632H270.075V142.256H273.584Z" fill="#3D3935"/>
<path d="M115.789 143.258V136.241L112.381 142.055H111.178L107.669 136.441V143.258H105.163V131.529H107.368L111.779 138.847L116.09 131.529H118.296L118.396 143.258H115.789Z" fill="#DA291C"/>
<path d="M115.789 143.258V136.241L112.381 142.055H111.178L107.669 136.441V143.258H105.163V131.529H107.368L111.779 138.847L116.09 131.529H118.296L118.396 143.258H115.789Z" fill="#DA291C"/>
<path d="M177.745 49.4236L175.74 51.9298H177.644L180.451 49.4236H177.745Z" fill="white"/>
</svg>
