<?xml version="1.0" encoding="UTF-8"?>
<svg xmlns="http://www.w3.org/2000/svg" viewBox="0 0 300 300">
  <defs>
    <style>
      .cls-1 {
        fill: #514f54;
        opacity: .58;
      }

      .cls-2 {
        fill: #16171b;
        opacity: .87;
      }

      .cls-3 {
        fill: #949196;
        opacity: .32;
      }

      .cls-4 {
        fill: #49484d;
        opacity: .61;
      }

      .cls-5 {
        fill: #101115;
        opacity: .9;
      }

      .cls-6 {
        fill: #b1afb3;
        opacity: .23;
      }

      .cls-7 {
        fill: #bcb9bd;
        opacity: .19;
      }

      .cls-8, .cls-9 {
        fill: #fff;
      }

      .cls-10 {
        fill: #dcdbdd;
        opacity: .1;
      }

      .cls-11 {
        fill: #f3f3f4;
        opacity: .03;
      }

      .cls-12 {
        fill: #68656b;
        opacity: .48;
      }

      .cls-13 {
        fill: #28272d;
        opacity: .77;
      }

      .cls-14 {
        fill: #d1cfd2;
        opacity: .13;
      }

      .cls-15 {
        fill: #050507;
        opacity: .97;
      }

      .cls-16 {
        fill: #fcd421;
      }

      .cls-9 {
        opacity: 0;
      }

      .cls-17 {
        fill: #8b888d;
        opacity: .35;
      }

      .cls-18 {
        fill: #3b3a3f;
        opacity: .68;
      }

      .cls-19 {
        isolation: isolate;
      }

      .cls-20 {
        fill: #605d63;
        opacity: .52;
      }

      .cls-21 {
        fill: #c6c4c7;
        opacity: .16;
      }

      .cls-22 {
        fill: #79767b;
        opacity: .42;
      }

      .cls-23 {
        fill: #2e2d33;
        opacity: .74;
      }

      .cls-24 {
        fill: #424146;
        opacity: .65;
      }

      .cls-25 {
        fill: #e9463d;
      }

      .cls-26 {
        fill: #0a0b0e;
        opacity: .94;
      }

      .cls-27 {
        fill: #9d9b9f;
        opacity: .29;
      }

      .cls-28 {
        fill: #ca2b24;
      }

      .cls-29 {
        fill: #343339;
        opacity: .71;
      }

      .cls-30 {
        fill: #817f84;
        opacity: .39;
      }

      .cls-31 {
        fill: #010101;
      }

      .cls-32 {
        fill: #222227;
        opacity: .81;
      }

      .cls-33 {
        fill: #1c1c21;
        opacity: .84;
      }

      .cls-34 {
        fill: #58565b;
        opacity: .55;
      }

      .cls-35 {
        fill: #e8e6e8;
        opacity: .06;
      }

      .cls-36 {
        fill: #a7a5a9;
        opacity: .26;
      }

      .cls-37 {
        fill: #706d73;
        opacity: .45;
      }

      .cls-38 {
        mix-blend-mode: multiply;
        opacity: .5;
      }
    </style>
  </defs>
  <g class="cls-19">
    <g id="Capa_1" data-name="Capa 1">
      <g>
        <g class="cls-38">
          <path class="cls-9" d="M105.91,274.22c-.7,0-1.4-.07-2.08-.2-3.42-.66-6.37-2.92-7.88-6.05l-54.92-113.47c-2.18-4.49-1.06-9.91,2.71-13.19l87.16-75.65c2.02-1.75,4.59-2.71,7.26-2.71.29,0,.59.01.88.04,2.95.23,5.72,1.67,7.61,3.93l75.64,90.45c3.81,4.56,3.36,11.27-1.02,15.28l-4.48,4.1c-.56.51-.88,1.22-.9,1.98-.02.75.27,1.48.8,2.02l73.37,73.83c3.16,3.19,4.09,7.92,2.37,12.07-1.73,4.14-5.74,6.82-10.23,6.82H110.3c-.3,0-.6.05-.88.14-1.22.41-2.4.62-3.51.62Z"/>
          <path class="cls-11" d="M104.91,273.22c-.7,0-1.4-.07-2.08-.2-3.42-.66-6.37-2.92-7.88-6.05l-54.92-113.47c-2.18-4.49-1.06-9.91,2.71-13.19l87.16-75.65c2.02-1.75,4.59-2.71,7.26-2.71.29,0,.59.01.88.04,2.95.24,5.72,1.67,7.61,3.93l75.64,90.45c3.81,4.56,3.36,11.27-1.02,15.28l-4.48,4.1c-.56.51-.88,1.22-.9,1.98-.02.75.27,1.48.8,2.02l73.37,73.83c3.16,3.19,4.09,7.92,2.37,12.07-1.73,4.14-5.74,6.82-10.23,6.82H109.3c-.3,0-.6.05-.88.14-1.22.4-2.4.62-3.51.62Z"/>
          <path class="cls-35" d="M103.9,272.21c-.7,0-1.4-.07-2.08-.2-3.42-.66-6.37-2.92-7.88-6.05l-54.92-113.47c-2.18-4.49-1.06-9.91,2.71-13.19l87.16-75.65c2.02-1.75,4.59-2.71,7.26-2.71.29,0,.59.01.88.04,2.95.24,5.72,1.67,7.61,3.93l75.64,90.45c3.81,4.56,3.36,11.27-1.02,15.28l-4.48,4.1c-.56.51-.88,1.22-.9,1.98-.02.75.27,1.48.8,2.02l73.37,73.83c3.16,3.18,4.09,7.92,2.37,12.06-1.73,4.14-5.74,6.82-10.23,6.82H108.29c-.3,0-.6.05-.88.14-1.22.4-2.4.62-3.51.62Z"/>
          <path class="cls-10" d="M102.9,271.21c-.7,0-1.4-.07-2.08-.2-3.42-.66-6.37-2.92-7.88-6.05l-54.92-113.47c-2.18-4.49-1.06-9.91,2.71-13.19L127.87,62.65c2.02-1.75,4.59-2.71,7.26-2.71.29,0,.59.01.88.04,2.95.24,5.72,1.67,7.61,3.93l75.64,90.45c3.81,4.56,3.36,11.27-1.02,15.28l-4.48,4.1c-.56.51-.88,1.22-.9,1.98-.02.75.27,1.48.8,2.02l73.37,73.83c3.16,3.18,4.09,7.92,2.37,12.06-1.73,4.14-5.74,6.82-10.23,6.82H107.29c-.3,0-.6.05-.88.14-1.22.4-2.4.62-3.51.62Z"/>
          <path class="cls-14" d="M101.89,270.2c-.7,0-1.4-.07-2.08-.2-3.42-.66-6.37-2.92-7.88-6.05l-54.92-113.47c-2.18-4.49-1.06-9.91,2.71-13.19L126.87,61.65c2.02-1.75,4.59-2.71,7.26-2.71.29,0,.59.01.88.04,2.95.24,5.72,1.67,7.61,3.93l75.64,90.45c3.81,4.56,3.36,11.27-1.02,15.28l-4.48,4.1c-.56.51-.88,1.22-.9,1.98-.02.75.27,1.48.8,2.02l73.37,73.83c3.16,3.18,4.09,7.92,2.37,12.06-1.73,4.14-5.74,6.82-10.23,6.82H106.28c-.3,0-.6.05-.88.14-1.22.4-2.4.62-3.51.62Z"/>
          <path class="cls-21" d="M100.89,269.2c-.7,0-1.4-.07-2.08-.2-3.42-.66-6.37-2.92-7.88-6.05l-54.92-113.47c-2.18-4.49-1.06-9.91,2.71-13.19L125.86,60.64c2.02-1.75,4.59-2.71,7.26-2.71.29,0,.59.01.88.04,2.95.24,5.72,1.67,7.61,3.93l75.64,90.45c3.81,4.56,3.36,11.27-1.02,15.28l-4.48,4.1c-.56.51-.88,1.22-.9,1.98-.02.75.27,1.48.8,2.02l73.37,73.83c3.16,3.18,4.09,7.92,2.37,12.06-1.73,4.14-5.74,6.82-10.23,6.82H105.28c-.3,0-.6.05-.88.14-1.22.4-2.4.62-3.51.62Z"/>
          <path class="cls-7" d="M99.88,268.19c-.7,0-1.4-.07-2.08-.2-3.42-.66-6.37-2.92-7.88-6.05l-54.92-113.47c-2.18-4.49-1.06-9.91,2.71-13.19L124.86,59.64c2.02-1.75,4.59-2.71,7.26-2.71.29,0,.59.01.88.04,2.95.24,5.72,1.67,7.61,3.93l75.65,90.45c3.81,4.56,3.36,11.27-1.02,15.28l-4.48,4.1c-.56.51-.88,1.22-.9,1.98-.02.75.27,1.48.8,2.02l73.37,73.83c3.16,3.18,4.09,7.92,2.37,12.06-1.73,4.14-5.74,6.82-10.23,6.82H104.27c-.3,0-.6.05-.88.14-1.22.4-2.4.62-3.51.62Z"/>
          <path class="cls-6" d="M98.88,267.19c-.7,0-1.4-.07-2.08-.2-3.42-.66-6.37-2.92-7.88-6.05l-54.92-113.47c-2.18-4.49-1.06-9.92,2.71-13.19L123.85,58.63c2.02-1.75,4.59-2.71,7.26-2.71.29,0,.59.01.88.04,2.95.24,5.72,1.67,7.61,3.93l75.65,90.45c3.81,4.56,3.36,11.27-1.02,15.28l-4.48,4.1c-.56.51-.88,1.22-.9,1.98-.02.75.27,1.48.8,2.02l73.37,73.83c3.16,3.18,4.09,7.92,2.37,12.06-1.73,4.14-5.74,6.82-10.23,6.82H103.27c-.3,0-.6.05-.88.14-1.22.4-2.4.62-3.51.62Z"/>
          <path class="cls-36" d="M97.87,266.18c-.7,0-1.4-.07-2.08-.2-3.42-.66-6.37-2.92-7.88-6.05l-54.92-113.47c-2.18-4.49-1.06-9.92,2.71-13.19L122.85,57.63c2.02-1.75,4.59-2.71,7.26-2.71.29,0,.59.01.88.04,2.95.24,5.72,1.67,7.61,3.93l75.65,90.45c3.81,4.56,3.36,11.27-1.02,15.28l-4.48,4.1c-.56.51-.88,1.22-.9,1.98-.02.75.27,1.48.8,2.02l73.37,73.83c3.16,3.18,4.09,7.92,2.37,12.06-1.73,4.14-5.74,6.82-10.23,6.82H102.26c-.3,0-.6.05-.88.14-1.22.4-2.4.62-3.51.62Z"/>
          <path class="cls-27" d="M96.87,265.18c-.7,0-1.4-.07-2.08-.2-3.42-.66-6.37-2.92-7.88-6.05l-54.92-113.47c-2.18-4.49-1.06-9.92,2.71-13.19L121.84,56.62c2.02-1.75,4.59-2.71,7.26-2.71.29,0,.59.01.88.04,2.95.24,5.72,1.67,7.61,3.93l75.65,90.45c3.81,4.56,3.36,11.27-1.02,15.28l-4.48,4.1c-.56.51-.88,1.22-.9,1.98-.02.75.27,1.48.8,2.02l73.37,73.83c3.16,3.18,4.09,7.92,2.37,12.06-1.73,4.14-5.74,6.82-10.23,6.82H101.26c-.3,0-.6.05-.88.14-1.22.4-2.4.62-3.51.62Z"/>
          <path class="cls-3" d="M95.86,264.17c-.7,0-1.4-.07-2.08-.2-3.42-.66-6.37-2.92-7.89-6.05l-54.92-113.47c-2.18-4.49-1.06-9.92,2.71-13.19L120.84,55.62c2.02-1.75,4.59-2.71,7.26-2.71.29,0,.59.01.88.04,2.95.24,5.72,1.67,7.61,3.93l75.65,90.45c3.81,4.56,3.36,11.27-1.02,15.28l-4.48,4.1c-.56.51-.88,1.22-.9,1.98-.02.75.27,1.48.8,2.02l73.37,73.83c3.16,3.18,4.09,7.92,2.37,12.06-1.73,4.14-5.74,6.82-10.23,6.82H100.25c-.3,0-.6.05-.88.14-1.22.41-2.4.62-3.51.62Z"/>
          <path class="cls-17" d="M94.86,263.17c-.7,0-1.4-.07-2.08-.2-3.42-.66-6.37-2.92-7.89-6.05l-54.92-113.47c-2.18-4.49-1.06-9.92,2.71-13.19L119.83,54.61c2.02-1.75,4.59-2.71,7.26-2.71.29,0,.59.01.88.04,2.95.24,5.72,1.67,7.61,3.93l75.65,90.45c3.81,4.56,3.36,11.27-1.02,15.28l-4.48,4.1c-.56.51-.88,1.22-.9,1.98-.02.75.27,1.48.8,2.02l73.37,73.83c3.16,3.18,4.09,7.92,2.37,12.06-1.73,4.14-5.74,6.82-10.23,6.82H99.25c-.3,0-.6.05-.88.14-1.22.41-2.4.62-3.51.62Z"/>
          <path class="cls-30" d="M93.85,262.16c-.7,0-1.4-.07-2.08-.2-3.42-.66-6.37-2.92-7.89-6.05l-54.92-113.47c-2.18-4.49-1.06-9.92,2.71-13.19L118.83,53.61c2.02-1.75,4.59-2.71,7.26-2.71.29,0,.59.01.88.04,2.95.24,5.72,1.67,7.61,3.93l75.65,90.45c3.81,4.56,3.36,11.27-1.02,15.28l-4.48,4.1c-.56.51-.88,1.22-.9,1.98-.02.75.27,1.48.8,2.02l73.37,73.83c3.16,3.18,4.09,7.92,2.37,12.06-1.73,4.14-5.74,6.82-10.23,6.82H98.24c-.3,0-.6.05-.88.14-1.22.41-2.4.62-3.51.62Z"/>
          <path class="cls-22" d="M92.85,261.16c-.7,0-1.4-.07-2.08-.2-3.42-.66-6.37-2.92-7.89-6.05l-54.92-113.47c-2.18-4.49-1.06-9.92,2.71-13.19L117.82,52.6c2.02-1.75,4.59-2.71,7.26-2.71.29,0,.59.01.88.04,2.95.24,5.72,1.67,7.61,3.93l75.65,90.45c3.81,4.56,3.36,11.27-1.02,15.28l-4.48,4.1c-.56.51-.88,1.22-.9,1.98-.02.75.27,1.48.8,2.02l73.37,73.83c3.16,3.18,4.09,7.92,2.37,12.06-1.73,4.14-5.74,6.82-10.23,6.82H97.24c-.3,0-.6.05-.88.14-1.22.41-2.4.62-3.51.62Z"/>
          <path class="cls-37" d="M91.84,260.15c-.7,0-1.4-.07-2.08-.2-3.42-.66-6.37-2.92-7.89-6.05l-54.92-113.47c-2.18-4.49-1.06-9.92,2.71-13.19L116.82,51.6c2.02-1.75,4.59-2.71,7.26-2.71.29,0,.59.01.88.04,2.95.24,5.72,1.67,7.61,3.93l75.65,90.45c3.81,4.56,3.36,11.27-1.02,15.28l-4.48,4.1c-.56.51-.88,1.22-.9,1.98-.02.75.27,1.48.8,2.02l73.37,73.83c3.16,3.18,4.09,7.92,2.37,12.06-1.73,4.14-5.74,6.82-10.23,6.82H96.23c-.3,0-.6.05-.88.14-1.22.41-2.4.62-3.51.62Z"/>
          <path class="cls-12" d="M90.84,259.15c-.7,0-1.4-.07-2.08-.2-3.42-.66-6.37-2.92-7.89-6.05l-54.92-113.47c-2.17-4.49-1.06-9.92,2.71-13.19L115.81,50.59c2.02-1.75,4.59-2.71,7.26-2.71.29,0,.59.01.88.04,2.95.24,5.72,1.67,7.61,3.93l75.65,90.45c3.81,4.56,3.36,11.27-1.02,15.28l-4.48,4.1c-.56.51-.88,1.22-.9,1.98-.02.75.27,1.48.8,2.02l73.37,73.83c3.16,3.18,4.09,7.92,2.37,12.06-1.73,4.14-5.74,6.82-10.23,6.82H95.23c-.3,0-.6.05-.88.14-1.22.41-2.4.62-3.51.62Z"/>
          <path class="cls-20" d="M89.83,258.14c-.7,0-1.4-.07-2.08-.2-3.42-.66-6.37-2.92-7.89-6.05l-54.92-113.47c-2.17-4.5-1.06-9.92,2.71-13.19L114.81,49.59c2.02-1.75,4.59-2.71,7.26-2.71.29,0,.59.01.88.04,2.95.24,5.72,1.67,7.61,3.93l75.65,90.45c3.81,4.56,3.36,11.27-1.02,15.28l-4.48,4.1c-.56.51-.88,1.22-.9,1.98-.02.75.27,1.48.8,2.02l73.37,73.83c3.16,3.18,4.09,7.92,2.37,12.06-1.73,4.14-5.74,6.82-10.23,6.82H94.22c-.3,0-.6.05-.88.14-1.22.41-2.4.62-3.51.62Z"/>
          <path class="cls-34" d="M88.83,257.14c-.7,0-1.4-.07-2.08-.2-3.42-.66-6.37-2.92-7.89-6.05l-54.92-113.47c-2.17-4.5-1.06-9.92,2.71-13.2L113.8,48.58c2.02-1.75,4.59-2.71,7.26-2.71.29,0,.59.01.88.04,2.95.24,5.72,1.67,7.61,3.93l75.65,90.45c3.81,4.56,3.36,11.27-1.02,15.28l-4.48,4.1c-.56.51-.88,1.22-.9,1.98-.02.75.27,1.48.8,2.02l73.37,73.83c3.16,3.18,4.09,7.92,2.37,12.06-1.73,4.14-5.74,6.82-10.23,6.82H93.22c-.3,0-.6.05-.88.14-1.22.41-2.4.62-3.51.62Z"/>
          <path class="cls-1" d="M87.82,256.13c-.7,0-1.4-.07-2.08-.2-3.42-.66-6.37-2.92-7.89-6.05l-54.92-113.47c-2.17-4.5-1.06-9.92,2.71-13.2L112.8,47.58c2.02-1.75,4.59-2.71,7.26-2.71.29,0,.59.01.88.04,2.95.24,5.72,1.67,7.61,3.93l75.65,90.45c3.81,4.56,3.36,11.27-1.02,15.28l-4.48,4.1c-.56.51-.88,1.22-.9,1.98-.02.75.27,1.48.8,2.02l73.37,73.83c3.16,3.18,4.09,7.92,2.37,12.06-1.73,4.14-5.74,6.82-10.23,6.82H92.21c-.3,0-.6.05-.88.14-1.22.41-2.4.62-3.51.62Z"/>
          <path class="cls-4" d="M86.82,255.13c-.7,0-1.4-.07-2.08-.2-3.42-.66-6.37-2.92-7.89-6.05l-54.92-113.47c-2.17-4.5-1.06-9.92,2.71-13.2L111.79,46.57c2.02-1.75,4.59-2.71,7.26-2.71.29,0,.59.01.88.04,2.95.24,5.72,1.67,7.61,3.93l75.65,90.45c3.81,4.56,3.36,11.27-1.02,15.28l-4.48,4.1c-.56.51-.88,1.22-.9,1.98-.02.75.27,1.48.8,2.02l73.37,73.83c3.16,3.18,4.09,7.92,2.37,12.06-1.72,4.14-5.74,6.82-10.23,6.82H91.21c-.3,0-.6.05-.88.14-1.22.41-2.4.62-3.51.62Z"/>
          <path class="cls-24" d="M85.81,254.12c-.7,0-1.4-.07-2.08-.2-3.42-.66-6.37-2.92-7.89-6.05l-54.92-113.47c-2.17-4.5-1.06-9.92,2.71-13.2L110.79,45.57c2.02-1.75,4.59-2.71,7.26-2.71.29,0,.59.01.88.04,2.95.24,5.72,1.67,7.61,3.93l75.65,90.45c3.81,4.56,3.36,11.27-1.02,15.28l-4.48,4.1c-.56.51-.88,1.22-.9,1.98-.02.75.27,1.48.8,2.02l73.37,73.83c3.16,3.18,4.09,7.92,2.37,12.06-1.72,4.14-5.74,6.82-10.23,6.82H90.2c-.3,0-.6.05-.88.14-1.22.41-2.4.62-3.51.62Z"/>
          <path class="cls-18" d="M84.81,253.12c-.7,0-1.4-.07-2.08-.2-3.42-.66-6.37-2.92-7.89-6.05l-54.92-113.47c-2.17-4.5-1.06-9.92,2.71-13.2L109.78,44.56c2.02-1.75,4.59-2.71,7.26-2.71.29,0,.59.01.88.04,2.95.24,5.72,1.67,7.61,3.93l75.65,90.45c3.81,4.56,3.36,11.27-1.02,15.28l-4.48,4.1c-.56.51-.88,1.22-.9,1.98-.02.75.27,1.48.8,2.02l73.37,73.83c3.16,3.18,4.09,7.92,2.37,12.06-1.72,4.14-5.74,6.82-10.23,6.82H89.2c-.3,0-.6.05-.88.14-1.22.41-2.4.62-3.51.62Z"/>
          <path class="cls-29" d="M83.8,252.11c-.7,0-1.4-.07-2.08-.2-3.42-.66-6.37-2.92-7.89-6.05l-54.92-113.47c-2.17-4.5-1.06-9.92,2.71-13.2L108.78,43.56c2.02-1.75,4.59-2.71,7.26-2.71.29,0,.59.01.88.04,2.95.24,5.72,1.67,7.61,3.93l75.65,90.45c3.81,4.56,3.36,11.27-1.02,15.28l-4.48,4.1c-.56.51-.88,1.22-.9,1.98-.02.75.27,1.48.8,2.02l73.37,73.83c3.16,3.18,4.09,7.92,2.37,12.06-1.72,4.14-5.74,6.82-10.23,6.82H88.19c-.3,0-.6.05-.88.14-1.22.41-2.4.62-3.51.62Z"/>
          <path class="cls-23" d="M82.8,251.11c-.7,0-1.4-.07-2.08-.19-3.42-.66-6.37-2.92-7.89-6.05l-54.92-113.47c-2.17-4.5-1.06-9.92,2.71-13.2L107.77,42.55c2.02-1.75,4.59-2.71,7.26-2.71.29,0,.59.01.88.04,2.95.24,5.72,1.67,7.61,3.93l75.65,90.45c3.81,4.56,3.36,11.27-1.02,15.28l-4.48,4.1c-.56.51-.88,1.22-.9,1.98-.02.75.27,1.48.8,2.02l73.37,73.83c3.16,3.18,4.09,7.92,2.37,12.06-1.72,4.14-5.74,6.82-10.23,6.82H87.19c-.3,0-.6.05-.88.14-1.22.41-2.4.62-3.51.62Z"/>
          <path class="cls-13" d="M81.79,250.1c-.7,0-1.4-.07-2.08-.19-3.42-.66-6.37-2.92-7.89-6.05l-54.92-113.47c-2.17-4.5-1.06-9.92,2.71-13.2L106.77,41.55c2.02-1.75,4.59-2.71,7.26-2.71.29,0,.59.01.88.04,2.95.24,5.72,1.67,7.61,3.93l75.65,90.45c3.81,4.56,3.36,11.27-1.02,15.28l-4.48,4.1c-.56.51-.88,1.22-.9,1.98-.02.75.27,1.48.8,2.02l73.37,73.83c3.16,3.18,4.09,7.92,2.37,12.06-1.72,4.14-5.74,6.82-10.23,6.82H86.18c-.3,0-.6.05-.88.14-1.22.41-2.4.62-3.51.62Z"/>
          <path class="cls-32" d="M80.79,249.1c-.7,0-1.4-.07-2.08-.19-3.42-.66-6.37-2.92-7.89-6.05L15.9,129.38c-2.17-4.5-1.06-9.92,2.71-13.2L105.76,40.54c2.02-1.75,4.59-2.71,7.26-2.71.29,0,.59.01.88.04,2.95.24,5.72,1.67,7.61,3.93l75.65,90.45c3.81,4.56,3.36,11.27-1.02,15.28l-4.48,4.1c-.56.51-.88,1.22-.9,1.98-.02.75.27,1.48.8,2.02l73.37,73.83c3.16,3.18,4.09,7.92,2.37,12.06-1.72,4.14-5.74,6.82-10.23,6.82H85.18c-.3,0-.6.05-.88.14-1.22.41-2.4.62-3.51.62Z"/>
          <path class="cls-33" d="M79.78,248.09c-.7,0-1.4-.07-2.08-.19-3.42-.66-6.37-2.92-7.89-6.05L14.89,128.38c-2.17-4.5-1.06-9.92,2.71-13.2L104.76,39.54c2.02-1.75,4.59-2.71,7.26-2.71.29,0,.59.01.88.04,2.95.25,5.72,1.67,7.61,3.93l75.65,90.45c3.81,4.56,3.36,11.27-1.02,15.28l-4.48,4.1c-.56.51-.88,1.22-.9,1.98-.02.75.27,1.48.8,2.02l73.37,73.83c3.16,3.18,4.09,7.92,2.37,12.06-1.72,4.14-5.74,6.82-10.23,6.82H84.17c-.3,0-.6.05-.88.14-1.22.41-2.4.62-3.51.62Z"/>
          <path class="cls-2" d="M78.78,247.09c-.7,0-1.4-.07-2.08-.19-3.42-.66-6.37-2.92-7.89-6.05L13.89,127.37c-2.17-4.5-1.06-9.92,2.71-13.2L103.75,38.53c2.02-1.75,4.59-2.71,7.26-2.71.29,0,.59.01.88.04,2.95.25,5.72,1.67,7.61,3.93l75.65,90.45c3.81,4.56,3.36,11.27-1.02,15.28l-4.49,4.1c-.56.51-.88,1.22-.9,1.98-.02.75.27,1.48.8,2.02l73.37,73.83c3.16,3.18,4.09,7.92,2.37,12.06-1.72,4.15-5.74,6.82-10.23,6.82H83.17c-.3,0-.6.05-.88.14-1.22.41-2.4.62-3.51.62Z"/>
          <path class="cls-5" d="M77.77,246.08c-.7,0-1.4-.06-2.08-.19-3.42-.66-6.37-2.92-7.89-6.05L12.88,126.37c-2.17-4.5-1.06-9.92,2.71-13.2L102.75,37.53c2.02-1.75,4.59-2.71,7.26-2.71.29,0,.59.01.88.04,2.95.25,5.72,1.67,7.61,3.93l75.65,90.45c3.81,4.56,3.36,11.27-1.02,15.28l-4.49,4.1c-.56.51-.88,1.22-.9,1.98-.02.75.27,1.48.8,2.02l73.37,73.83c3.16,3.18,4.09,7.92,2.37,12.06-1.72,4.15-5.74,6.82-10.23,6.82H82.16c-.3,0-.6.05-.88.14-1.22.41-2.4.62-3.51.62Z"/>
          <path class="cls-26" d="M76.77,245.08c-.7,0-1.4-.06-2.08-.19-3.42-.66-6.37-2.92-7.89-6.05L11.88,125.37c-2.17-4.5-1.06-9.92,2.71-13.2L101.74,36.52c2.02-1.75,4.59-2.71,7.26-2.71.29,0,.59.01.88.04,2.95.25,5.72,1.67,7.61,3.93l75.65,90.45c3.81,4.56,3.36,11.27-1.02,15.28l-4.49,4.1c-.56.51-.88,1.22-.9,1.98-.02.75.27,1.48.8,2.02l73.37,73.83c3.16,3.18,4.09,7.92,2.37,12.06-1.72,4.15-5.74,6.82-10.23,6.82H81.16c-.3,0-.6.05-.88.14-1.22.41-2.4.62-3.51.62Z"/>
          <path class="cls-15" d="M75.76,244.07c-.7,0-1.4-.06-2.08-.19-3.42-.66-6.37-2.92-7.89-6.05L10.87,124.36c-2.17-4.5-1.06-9.92,2.71-13.2L100.74,35.52c2.02-1.75,4.59-2.71,7.26-2.71.29,0,.59.01.88.04,2.95.25,5.72,1.67,7.61,3.93l75.65,90.45c3.81,4.56,3.36,11.27-1.02,15.28l-4.49,4.1c-.56.51-.88,1.22-.9,1.98-.02.75.27,1.48.8,2.02l73.37,73.83c3.16,3.18,4.09,7.92,2.37,12.06-1.72,4.15-5.74,6.82-10.23,6.82H80.15c-.3,0-.6.05-.88.14-1.22.41-2.4.62-3.51.62Z"/>
          <path class="cls-31" d="M74.76,243.07c-.7,0-1.4-.06-2.08-.19-3.42-.66-6.37-2.92-7.89-6.05L9.87,123.36c-2.17-4.5-1.06-9.92,2.71-13.2L99.73,34.51c2.02-1.75,4.59-2.71,7.26-2.71.29,0,.59.01.88.04,2.95.24,5.72,1.67,7.61,3.93l75.65,90.45c3.81,4.56,3.36,11.27-1.02,15.28l-4.49,4.1c-.56.51-.88,1.22-.9,1.98-.02.75.27,1.48.8,2.02l73.37,73.84c3.16,3.18,4.09,7.92,2.37,12.06-1.72,4.15-5.74,6.82-10.22,6.82H79.15c-.3,0-.6.05-.88.14-1.22.41-2.4.62-3.51.62Z"/>
        </g>
        <path class="cls-8" d="M187.5,147.64l4.48-4.1c5.47-5,6.03-13.41,1.28-19.1L117.61,34c-2.38-2.85-5.81-4.62-9.52-4.92-.37-.03-.74-.04-1.1-.04-3.32,0-6.55,1.19-9.08,3.39L10.76,108.07c-4.72,4.1-6.11,10.86-3.39,16.49l54.92,113.46c1.9,3.93,5.56,6.74,9.85,7.56.87.17,1.74.25,2.61.25,1.5,0,2.98-.29,4.39-.76h171.9c5.59,0,10.63-3.37,12.78-8.53,2.15-5.17.98-11.11-2.96-15.08l-73.37-73.83Z"/>
        <g>
          <polygon class="cls-28" points="251.05 231.23 74.76 231.23 26.41 124.34 146.46 125.99 251.05 231.23"/>
          <polygon class="cls-16" points="232.2 224.97 86.1 224.88 83.88 220.41 227.98 220.55 232.2 224.97"/>
          <polygon class="cls-16" points="223.06 215.39 81.29 215.18 79.06 210.7 218.85 210.97 223.06 215.39"/>
          <polygon class="cls-16" points="213.93 205.81 76.47 205.48 74.25 201 209.71 201.39 213.93 205.81"/>
          <polygon class="cls-16" points="204.79 196.24 71.66 195.77 59.1 170.47 180.97 171.25 204.79 196.24"/>
          <polygon class="cls-16" points="177.39 167.5 57.21 166.66 54.99 162.18 173.17 163.08 177.39 167.5"/>
          <polygon class="cls-16" points="168.26 157.92 52.39 156.95 50.17 152.47 164.04 153.5 168.26 157.92"/>
          <polygon class="cls-16" points="159.12 148.34 47.58 147.25 45.36 142.77 154.9 143.92 159.12 148.34"/>
          <polygon class="cls-16" points="149.98 138.76 42.76 137.54 40.54 133.06 145.77 134.34 149.98 138.76"/>
        </g>
        <g>
          <polygon class="cls-25" points="182.64 133.33 74.76 231.99 19.84 118.53 106.99 42.88 182.64 133.33"/>
          <g>
            <path class="cls-16" d="M65.25,128.66l-6.15,5.44-.23-.74c.3-.44.6-.85.9-1.24.3-.39.62-.79.96-1.2l-3.24-11.85-.73-3.18-.22.19.02,3.48-1.52,18.13-.64.57-8.25-9.55-1.65-2.38-.19.16.87,3.4,2.96,12.16c.33-.2.67-.39,1.01-.56.34-.18.69-.33,1.03-.46l.19.78-5.2,4.6-.21-.77c.53-.84,1.15-1.67,1.87-2.48l-3.88-16.02c-.36.23-.72.43-1.09.61-.37.19-.73.34-1.06.46l-.19-.78,5-4.39,7.21,8.62,1.54,2.02.02-.02v-3.45s1.29-16,1.29-16l4.44-3.89.2.77c-.48.79-1.03,1.55-1.64,2.25l4.31,15.6c.36-.24.72-.45,1.06-.63.34-.19.66-.32.96-.41l.24.74Z"/>
            <path class="cls-16" d="M74.65,97.59c.22.67.43,1.37.61,2.09.18.73.33,1.48.43,2.25l-.64.57-1.88-1.92-5.24,4.6,2.09,6.78,3.96-3.49.37-2.73.61-.54c.31.81.6,1.64.87,2.5.27.86.52,1.74.73,2.66l-.61.54-1.56-1.1-4,3.52,2.16,7.19,5.68-5.02.28-4.16.62-.54c.31.58.61,1.21.9,1.92.29.7.54,1.44.74,2.22l-12.27,10.85-.24-.73c.54-.85,1.16-1.66,1.88-2.45l-4.52-15.35c-.36.22-.72.41-1.08.6-.35.18-.72.35-1.1.51l-.2-.77,11.4-10Z"/>
            <path class="cls-16" d="M90.05,84.08l5.09-4.46.27.7c-.19.47-.43.94-.72,1.41-.29.47-.59.9-.89,1.3l5.69,15.75-1.3,1.14-13.78-5.68-1.57-1.14-.07.07.82,1.81,3.95,11.92c.34-.19.7-.36,1.08-.5.38-.14.75-.24,1.1-.3l.25.72-5.23,4.62-.26-.71c.48-.99,1.07-1.89,1.77-2.7l-4.76-14.39c-.38.16-.75.3-1.11.43-.36.13-.7.23-1,.3l-.26-.68,3.98-3.5,11.78,5,1.95,1.06.1-.09-.8-2.07-3.58-9.96c-.8.34-1.55.56-2.23.67l-.26-.7Z"/>
            <path class="cls-16" d="M97.93,77.16l6.12-5.37.28.68c-.46.77-.99,1.5-1.59,2.2l3.65,9.52c.33.85.72,1.47,1.16,1.88.44.41.94.64,1.48.67.55.03,1.13-.11,1.75-.43.62-.31,1.27-.77,1.95-1.37,1.34-1.19,2.2-2.42,2.56-3.71.36-1.28.23-2.68-.4-4.2l-3.86-9.37c-.86.43-1.61.73-2.24.88l-.28-.68,5.16-4.53.27.69c-.16.38-.38.79-.66,1.22-.28.44-.57.85-.88,1.22l3.93,9.4c.84,2.06.96,3.97.36,5.72-.61,1.76-1.83,3.46-3.68,5.08-1.09.97-2.11,1.67-3.05,2.09-.94.42-1.78.6-2.53.55-.75-.06-1.41-.34-1.97-.84-.56-.5-1-1.2-1.32-2.08l-3.71-9.71c-.36.23-.74.45-1.14.66-.4.21-.76.37-1.08.48l-.27-.69Z"/>
          </g>
        </g>
      </g>
    </g>
  </g>
</svg>